<svg width="22" height="21" viewBox="0 0 22 21" fill="none" xmlns="http://www.w3.org/2000/svg">
<path fill-rule="evenodd" clip-rule="evenodd" d="M12.5101 0.230171C12.3593 0.0769664 12.1613 -2.80126e-05 11.9641 -2.80298e-05C11.7669 -2.8047e-05 11.5689 0.0769664 11.4189 0.230171C11.1172 0.537365 11.1172 1.03391 11.4189 1.3411L17.5942 7.62641C17.8959 7.9336 18.3838 7.9336 18.6855 7.62641C18.9872 7.31921 18.9872 6.82267 18.6855 6.51548L12.5101 0.230171ZM21.2271 9.42794L0.771553 9.42793C0.344937 9.42793 3.05176e-05 9.77991 3.05176e-05 10.2136C3.05176e-05 10.6473 0.344937 10.9993 0.772338 10.9993L19.3635 10.9993L11.4196 19.0861C11.118 19.3933 11.118 19.8898 11.4196 20.197C11.7213 20.5042 12.2092 20.5042 12.5109 20.197L21.7731 10.7691C21.9939 10.5444 22.0599 10.2065 21.9405 9.91269C21.821 9.61964 21.539 9.42794 21.2271 9.42794Z" fill="#41A99E"/>
</svg>
