<svg width="22" height="21" viewBox="0 0 22 21" fill="none" xmlns="http://www.w3.org/2000/svg">
<path fill-rule="evenodd" clip-rule="evenodd" d="M21.227 9.42801L0.771476 9.428C0.344861 9.428 -4.48455e-05 9.77998 -4.48834e-05 10.2137C-4.49214e-05 10.6474 0.344861 10.9993 0.772261 10.9993L19.3634 10.9993L11.4196 19.0862C11.1179 19.3934 11.1179 19.8899 11.4196 20.1971C11.7213 20.5043 12.2092 20.5043 12.5109 20.1971L21.773 10.7691C21.9938 10.5444 22.0598 10.2066 21.9404 9.91276C21.821 9.61971 21.5389 9.42801 21.227 9.42801ZM12.5102 0.230178C12.3593 0.076974 12.1613 -1.99335e-05 11.9641 -1.99508e-05C11.7669 -1.9968e-05 11.5689 0.076974 11.4189 0.230178C11.1172 0.537372 11.1172 1.03391 11.4189 1.34111L17.5942 7.62641C17.8959 7.93361 18.3838 7.93361 18.6855 7.62641C18.9872 7.31922 18.9872 6.82268 18.6855 6.51549L12.5102 0.230178Z" fill="#41A99E"/>
</svg>
