<svg width="22" height="21" viewBox="0 0 22 21" fill="none" xmlns="http://www.w3.org/2000/svg">
<path fill-rule="evenodd" clip-rule="evenodd" d="M0.772135 10.9995L21.2277 10.9995C21.6543 10.9995 21.9992 10.6475 21.9992 10.2138C21.9992 9.78014 21.6543 9.42816 21.2269 9.42816L2.63573 9.42816L10.5796 1.34132C10.8813 1.03413 10.8813 0.53759 10.5796 0.230396C10.2779 -0.0767986 9.78998 -0.0767986 9.48829 0.230396L0.226099 9.65836C0.00532773 9.88306 -0.0606681 10.2209 0.0587528 10.5147C0.178174 10.8078 0.460227 10.9995 0.772135 10.9995ZM9.48899 20.1973C9.63984 20.3505 9.83782 20.4275 10.035 20.4275C10.2322 20.4275 10.4302 20.3505 10.5803 20.1973C10.882 19.8901 10.882 19.3936 10.5803 19.0864L4.40496 12.8011C4.10327 12.4939 3.61537 12.4939 3.31367 12.8011C3.01198 13.1083 3.01198 13.6048 3.31367 13.912L9.48899 20.1973Z" fill="#41A99E"/>
</svg>
