<svg width="9" height="12" viewBox="0 0 9 12" fill="none" xmlns="http://www.w3.org/2000/svg">
<path d="M4.5 0C5.70044 0.0198739 6.84493 0.507496 7.68672 1.35773C8.52851 2.20797 9.00017 3.35271 9 4.54515C9 6.34805 8.35932 6.84802 4.95763 11.7568C4.90577 11.8318 4.83631 11.8931 4.75526 11.9355C4.6742 11.9779 4.58397 12 4.49237 12C4.40077 12 4.31055 11.9779 4.22949 11.9355C4.14843 11.8931 4.07898 11.8318 4.02712 11.7568C0.625424 6.77227 0 6.2723 0 4.54515C-0.000166893 3.35271 0.471492 2.20797 1.31328 1.35773C2.15507 0.507496 3.29956 0.0198739 4.5 0ZM4.5 6.3026C4.87174 6.30259 5.2351 6.1929 5.54397 5.98746C5.85284 5.78202 6.09331 5.49008 6.23486 5.14868C6.37641 4.80729 6.41267 4.43183 6.33903 4.06993C6.26538 3.70804 6.08517 3.37603 5.82124 3.11603C5.55731 2.85602 5.22156 2.67975 4.8566 2.60956C4.49164 2.53938 4.11392 2.57845 3.77135 2.72182C3.42878 2.86519 3.13682 3.1064 2.9325 3.41484C2.72817 3.72328 2.62071 4.08505 2.62373 4.45424C2.62775 4.94585 2.82721 5.41596 3.17864 5.76216C3.53007 6.10837 4.00501 6.30262 4.5 6.3026Z" fill="#41A99E"/>
</svg>
