<svg width="471" height="164" viewBox="0 0 471 164" fill="none" xmlns="http://www.w3.org/2000/svg">
<path d="M204.789 163V156.164L227.992 134.445C230.154 132.284 231.977 130.148 233.461 128.039C234.945 125.904 235.688 123.703 235.688 121.438C235.688 118.755 234.88 116.75 233.266 115.422C231.651 114.068 229.346 113.391 226.352 113.391C223.227 113.391 220.74 114.146 218.891 115.656C217.042 117.167 216.117 119.693 216.117 123.234V124.445H204.789V122.688C204.789 117.453 206.755 113.234 210.688 110.031C214.62 106.802 219.867 105.188 226.43 105.188C233.148 105.188 238.266 106.659 241.781 109.602C245.297 112.544 247.068 116.294 247.094 120.852C247.094 124.732 246.091 128.13 244.086 131.047C242.081 133.938 239.464 136.906 236.234 139.953L221.547 154.445H248.695V163H204.789Z" fill="white"/>
<path d="M254.906 140.109V128.586C254.906 121.138 256.911 115.383 260.922 111.32C264.932 107.232 270.57 105.188 277.836 105.188C285.154 105.188 290.805 107.206 294.789 111.242C298.799 115.253 300.805 121.034 300.805 128.586V140.148C300.805 147.909 298.747 153.82 294.633 157.883C290.544 161.945 284.945 163.964 277.836 163.938C270.492 163.938 264.828 161.88 260.844 157.766C256.885 153.625 254.906 147.74 254.906 140.109ZM266.312 141.359C266.312 146.047 267.25 149.641 269.125 152.141C271.026 154.615 273.93 155.852 277.836 155.852C281.768 155.852 284.685 154.615 286.586 152.141C288.487 149.641 289.438 146.047 289.438 141.359V127.492C289.438 122.909 288.474 119.432 286.547 117.062C284.62 114.667 281.716 113.469 277.836 113.469C273.956 113.469 271.065 114.667 269.164 117.062C267.263 119.432 266.312 122.909 266.312 127.492V141.359Z" fill="white"/>
<path d="M307.289 163V156.164L330.492 134.445C332.654 132.284 334.477 130.148 335.961 128.039C337.445 125.904 338.188 123.703 338.188 121.438C338.188 118.755 337.38 116.75 335.766 115.422C334.151 114.068 331.846 113.391 328.852 113.391C325.727 113.391 323.24 114.146 321.391 115.656C319.542 117.167 318.617 119.693 318.617 123.234V124.445H307.289V122.688C307.289 117.453 309.255 113.234 313.188 110.031C317.12 106.802 322.367 105.188 328.93 105.188C335.648 105.188 340.766 106.659 344.281 109.602C347.797 112.544 349.568 116.294 349.594 120.852C349.594 124.732 348.591 128.13 346.586 131.047C344.581 133.938 341.964 136.906 338.734 139.953L324.047 154.445H351.195V163H307.289Z" fill="white"/>
<path d="M357.562 147.258V145.461H368.617V147.023C368.617 149.966 369.633 152.193 371.664 153.703C373.721 155.188 376.43 155.93 379.789 155.93C383.148 155.93 385.831 155.188 387.836 153.703C389.867 152.219 390.883 149.797 390.883 146.438C390.883 143.182 389.75 140.799 387.484 139.289C385.245 137.753 382.172 136.984 378.266 136.984H372.016V130.07H377.992C381.169 130.07 383.812 129.38 385.922 128C388.057 126.594 389.125 124.328 389.125 121.203C389.125 118.521 388.292 116.529 386.625 115.227C384.958 113.924 382.641 113.273 379.672 113.273C376.547 113.273 374.125 113.977 372.406 115.383C370.714 116.789 369.867 118.82 369.867 121.477V122.648H358.969V121.281C358.969 116.281 360.87 112.349 364.672 109.484C368.474 106.62 373.552 105.188 379.906 105.188C386.339 105.188 391.352 106.542 394.945 109.25C398.565 111.932 400.375 115.513 400.375 119.992C400.375 123.273 399.503 126.008 397.758 128.195C396.039 130.357 393.617 131.958 390.492 133V133.156C393.852 133.833 396.677 135.331 398.969 137.648C401.26 139.966 402.406 143.078 402.406 146.984C402.406 152.089 400.375 156.19 396.312 159.289C392.276 162.388 386.794 163.938 379.867 163.938C372.914 163.938 367.458 162.44 363.5 159.445C359.542 156.451 357.562 152.388 357.562 147.258Z" fill="white"/>
<path d="M25.781 0L104.781 30.9014L100.786 45.1283L21.7861 14.246L25.781 0Z" fill="url(#paint0_linear_537_113)"/>
<path d="M104.781 31.0089L86.0676 96.9997L68.9893 90.3892L87.7024 24.3794L104.781 31.0089Z" fill="url(#paint1_linear_537_113)"/>
<path d="M86.2615 96.9999L7.26172 66.1176L11.2566 51.8716L90.2564 82.7539L86.2615 96.9999Z" fill="url(#paint2_linear_537_113)"/>
<path d="M7.26172 66.0098L25.7036 0L42.5344 6.61051L24.0925 72.6203L7.26172 66.0098Z" fill="url(#paint3_linear_537_113)"/>
<path d="M0 26.673L69.1361 1.55615L78.3262 16.3805L9.19007 41.4973L0 26.673Z" fill="url(#paint4_linear_537_113)"/>
<path d="M68.7855 1.55615L111.524 70.37L96.6851 75.7326L53.9465 6.93792L68.7855 1.55615Z" fill="url(#paint5_linear_537_113)"/>
<path d="M111.524 70.3462L42.8458 95.4439L33.7166 80.6195L102.395 55.5027L111.524 70.3462Z" fill="url(#paint6_linear_537_113)"/>
<path d="M42.7386 95.4438L0 26.6491L14.839 21.2673L57.5775 90.062L42.7386 95.4438Z" fill="url(#paint7_linear_537_113)"/>
<path fill-rule="evenodd" clip-rule="evenodd" d="M190.609 43.0393C187.498 43.1773 184.425 42.3102 181.839 40.5653C180.715 39.7358 179.815 38.6357 179.224 37.3658C178.632 36.096 178.368 34.6971 178.454 33.2978V32.0607C178.368 30.6614 178.632 29.2625 179.224 27.9927C179.815 26.7228 180.715 25.6227 181.839 24.7932C184.425 23.0483 187.498 22.1812 190.609 22.3192C193.719 22.1921 196.79 23.0581 199.38 24.7932C200.513 25.6171 201.421 26.7151 202.019 27.9856C202.617 29.256 202.887 30.6577 202.803 32.0607V33.2978C202.887 34.7008 202.617 36.1025 202.019 37.3729C201.421 38.6434 200.513 39.7414 199.38 40.5653C196.79 42.3004 193.719 43.1665 190.609 43.0393ZM185.223 29.2261C184.961 29.9735 184.863 30.7691 184.936 31.5582V33.8583C184.865 34.6444 184.964 35.4366 185.226 36.1806C185.488 36.9247 185.907 37.6028 186.455 38.1686C187.626 39.1176 189.108 39.5932 190.609 39.5022C192.121 39.5761 193.607 39.0875 194.783 38.1299C195.341 37.5699 195.769 36.8936 196.039 36.1488C196.308 35.404 196.411 34.6089 196.341 33.8196V31.5582C196.412 30.7659 196.31 29.9675 196.041 29.2193C195.772 28.4712 195.342 27.7916 194.783 27.2286C193.6 26.2859 192.118 25.8053 190.609 25.8756C189.106 25.7993 187.628 26.2808 186.455 27.2286C185.906 27.7973 185.486 28.4787 185.223 29.2261ZM175.845 42.535H168.838L164.123 35.6723H160.839V42.535H154.577V22.8455H164.524C167.109 22.7019 169.684 23.2705 171.969 24.4895C172.801 24.9539 173.49 25.6378 173.962 26.4669C174.433 27.2959 174.668 28.2385 174.642 29.192C174.667 30.1605 174.43 31.1178 173.956 31.9625C173.482 32.8072 172.789 33.5078 171.95 33.9901C171.452 34.2905 170.928 34.5463 170.384 34.7548L175.845 42.535ZM164.275 26.2673H160.82V32.3079H164.275C165.393 32.4141 166.512 32.1304 167.444 31.5051C167.765 31.2227 168.017 30.8713 168.182 30.4774C168.348 30.0834 168.422 29.657 168.399 29.2303C168.425 28.8162 168.354 28.4016 168.192 28.0199C168.03 27.6381 167.78 27.2998 167.464 27.0319C166.513 26.4338 165.393 26.1651 164.275 26.2673ZM210.344 40.5684C212.882 42.1047 215.768 42.9578 218.726 43.046C221.684 43.1341 224.615 42.4544 227.238 41.0719C228.132 40.5403 228.88 39.793 229.416 38.8973C229.952 38.0016 230.259 36.9855 230.31 35.9404V35.5143H223.955V35.9404C223.943 36.4376 223.825 36.9265 223.61 37.374C223.395 37.8216 223.087 38.2175 222.707 38.5352C221.679 39.2502 220.44 39.5916 219.194 39.5034C217.667 39.6051 216.16 39.1053 214.99 38.1091C214.463 37.5501 214.059 36.8851 213.804 36.1577C213.549 35.4302 213.45 34.6567 213.512 33.8878V31.4479C213.428 30.6566 213.521 29.8565 213.784 29.1061C214.046 28.3557 214.471 27.6738 215.028 27.1103C216.16 26.3642 217.468 25.9367 218.818 25.872C220.168 25.8073 221.511 26.1078 222.707 26.7424C223.11 27.0406 223.433 27.4364 223.644 27.8933C223.855 28.3502 223.949 28.8534 223.917 29.3565V29.8213H230.271V29.4534C230.268 28.397 229.987 27.3603 229.458 26.4488C228.928 25.5373 228.169 24.7834 227.257 24.2638C224.785 22.8424 221.959 22.1701 219.117 22.3273C216.001 22.1709 212.917 23.0334 210.325 24.7866C209.21 25.6274 208.321 26.7352 207.738 28.0099C207.155 29.2846 206.896 30.6859 206.985 32.0869V33.3262C206.911 34.7189 207.179 36.1084 207.765 37.3717C208.351 38.6349 209.237 39.7329 210.344 40.5684ZM241.105 39.052H253.133V42.535H234.978V22.8237H252.964V26.3067H241.105V30.6891H251.323V34.1146H241.105V39.052ZM259.27 41.5246C261.671 42.6021 264.291 43.1202 266.926 43.0388C269.569 43.152 272.199 42.6189 274.583 41.4867C275.456 41.1127 276.198 40.4938 276.719 39.7065C277.24 38.9193 277.515 37.9984 277.512 37.0578C277.534 36.2141 277.323 35.3805 276.901 34.6467C276.479 33.9129 275.863 33.3068 275.119 32.8938C273.161 31.8145 271.031 31.0721 268.821 30.6982C267.209 30.4459 265.621 30.0597 264.074 29.5436C263.783 29.4449 263.531 29.2585 263.353 29.0107C263.174 28.763 263.078 28.4662 263.079 28.1619C263.081 27.8612 263.168 27.5671 263.33 27.3128C263.493 27.0585 263.724 26.8544 263.998 26.7235C264.89 26.3176 265.87 26.1356 266.85 26.1935C267.882 26.1268 268.909 26.371 269.798 26.8938C270.113 27.0996 270.369 27.3814 270.543 27.7126C270.718 28.0438 270.803 28.4134 270.793 28.7865V29.1083H277.071V28.7108C277.058 27.8056 276.789 26.9221 276.295 26.1597C275.802 25.3974 275.102 24.7863 274.277 24.3954C271.941 23.3594 269.41 22.8237 266.85 22.8237C264.29 22.8237 261.759 23.3594 259.423 24.3954C258.598 24.7662 257.897 25.362 257.402 26.1129C256.907 26.8638 256.638 27.7388 256.629 28.6351C256.631 29.4145 256.848 30.1785 257.256 30.8453C257.664 31.5121 258.248 32.0567 258.945 32.4206C260.913 33.482 263.06 34.181 265.28 34.4837C266.929 34.7052 268.544 35.1312 270.085 35.7518C270.393 35.8958 270.654 36.1234 270.836 36.4083C271.019 36.6931 271.116 37.0234 271.116 37.3606C271.116 37.6978 271.019 38.0281 270.836 38.3129C270.654 38.5978 270.393 38.8254 270.085 38.9694C269.116 39.4137 268.051 39.6152 266.984 39.5562C265.884 39.622 264.786 39.3932 263.806 38.8937C263.459 38.7113 263.169 38.4387 262.966 38.1052C262.764 37.7717 262.657 37.3899 262.658 37.001V36.6603H256.246V37.0578C256.248 38.0144 256.536 38.949 257.074 39.7439C257.612 40.5388 258.376 41.1584 259.27 41.5246ZM291.796 43.0388C289.153 43.1277 286.524 42.6093 284.119 41.5246C283.232 41.1518 282.477 40.529 281.947 39.7343C281.418 38.9396 281.139 38.0085 281.144 37.0578V36.6603H287.574V37.001C287.573 37.3899 287.68 37.7717 287.883 38.1052C288.086 38.4387 288.377 38.7113 288.725 38.8937C289.709 39.3905 290.808 39.6192 291.911 39.5562C292.981 39.6152 294.049 39.4137 295.021 38.9694C295.336 38.8312 295.605 38.6056 295.793 38.3201C295.981 38.0345 296.081 37.7012 296.081 37.3606C296.081 37.02 295.981 36.6867 295.793 36.4011C295.605 36.1156 295.336 35.89 295.021 35.7518C293.475 35.1312 291.857 34.7052 290.203 34.4837C287.957 34.1878 285.784 33.4885 283.793 32.4206C283.094 32.0567 282.509 31.5121 282.1 30.8453C281.69 30.1785 281.473 29.4145 281.47 28.6351C281.48 27.7388 281.749 26.8638 282.245 26.1129C282.742 25.362 283.445 24.7662 284.273 24.3954C286.615 23.3594 289.153 22.8237 291.719 22.8237C294.286 22.8237 296.824 23.3594 299.166 24.3954C299.997 24.7828 300.701 25.3929 301.196 26.1561C301.692 26.9193 301.959 27.8046 301.968 28.7108V29.1083H295.654V28.7865C295.668 28.4128 295.584 28.0419 295.409 27.71C295.234 27.3782 294.974 27.097 294.656 26.8938C293.765 26.371 292.735 26.1268 291.7 26.1935C290.717 26.1372 289.736 26.3191 288.84 26.7235C288.566 26.8544 288.334 27.0585 288.171 27.3128C288.008 27.5671 287.921 27.8612 287.919 28.1619C287.919 28.4662 288.014 28.763 288.193 29.0107C288.372 29.2585 288.625 29.4449 288.917 29.5436C290.468 30.0597 292.06 30.4459 293.677 30.6982C295.905 31.0733 298.052 31.8155 300.03 32.8938C300.771 33.3109 301.384 33.9184 301.803 34.6516C302.222 35.3848 302.432 36.2164 302.41 37.0578C302.413 37.9984 302.137 38.9193 301.615 39.7065C301.093 40.4938 300.348 41.1127 299.473 41.4867C297.083 42.6189 294.446 43.152 291.796 43.0388ZM323.362 22.8237L313.304 42.535H319.052L320.967 38.4785H331.561L333.477 42.535H340.278L330.22 22.8237H323.362ZM322.711 35.1076L325.718 28.9752C325.852 28.6895 325.967 28.3848 326.063 28.1182C326.152 27.8719 326.207 27.5931 326.261 27.3269L326.274 27.2612H326.389C326.389 27.4681 326.459 27.6751 326.527 27.8748C326.553 27.9508 326.578 28.0257 326.6 28.0991C326.676 28.3657 326.81 28.6705 326.944 28.9752L329.952 35.1076H322.711ZM359.811 35.2437V34.4017L359.869 22.8237H365.176V42.4584H358.278L349.713 30.9762C349.681 30.9278 349.649 30.8799 349.617 30.8326C349.459 30.5993 349.311 30.3792 349.215 30.1724C349.185 30.1067 349.153 30.0397 349.121 29.9713C349.031 29.7808 348.936 29.5799 348.851 29.3686H348.698V30.2872V42.535H343.39V22.8237H350.116L358.738 34.5548C358.927 34.7915 359.1 35.0409 359.255 35.3011C359.405 35.5612 359.539 35.8295 359.658 36.1049H359.811V35.2437ZM389.607 25.2604C386.895 23.5735 383.748 22.7289 380.561 22.8322H371.401V42.5255H380.561C383.746 42.6346 386.893 41.7966 389.607 40.1165C390.748 39.4009 391.679 38.394 392.307 37.1983C392.935 36.0026 393.236 34.6609 393.18 33.3098V32.067C393.236 30.716 392.935 29.3743 392.307 28.1786C391.679 26.9828 390.748 25.9759 389.607 25.2604ZM386.89 33.4054C386.949 34.2179 386.816 35.033 386.502 35.784C386.189 36.535 385.703 37.2006 385.084 37.7265C383.744 38.7157 382.108 39.2148 380.447 39.1413H377.596V26.2738H380.447C382.106 26.1932 383.742 26.6857 385.084 27.6695C385.705 28.1933 386.193 28.8586 386.507 29.6102C386.821 30.3617 386.952 31.1778 386.89 31.9906V33.4054ZM145.029 68.3054C145.058 68.2394 145.088 68.1724 145.118 68.1045L150.908 56.0216H159.245V75.7328H152.973V63.7072V62.6749V61.6424H152.819C152.761 61.9906 152.684 62.3353 152.587 62.6749C152.471 63.0381 152.336 63.3822 152.201 63.7072L146.411 75.7328H141.297L135.507 63.7072C135.481 63.6456 135.455 63.584 135.429 63.5219L135.429 63.5218C135.315 63.2568 135.199 62.9847 135.121 62.6749C135.089 62.5491 135.051 62.4274 135.015 62.3099L135.015 62.3099C134.94 62.0702 134.87 61.8477 134.87 61.6424H134.716V62.6749V63.7072V75.7328H129.679V56.0216H137.958L143.748 68.1045C143.797 68.2088 143.855 68.3092 143.91 68.4056C144.027 68.6097 144.134 68.7961 144.134 68.9648C144.24 69.2693 144.318 69.5829 144.366 69.9017H144.481C144.54 69.5814 144.631 69.2677 144.751 68.9648C144.827 68.7566 144.925 68.5368 145.029 68.3054ZM171.604 67.3207H181.833V63.8984H171.604V59.5203H183.456V56.0216H165.47V75.7328H183.625V72.2532H171.604V67.3207ZM199.665 56.0432C202.451 55.891 205.223 56.5445 207.649 57.9259C208.534 58.4313 209.27 59.1627 209.781 60.0457C210.293 60.9286 210.562 61.9316 210.561 62.9525V63.329H204.324V62.8772C204.354 62.3874 204.263 61.8978 204.06 61.4513C203.857 61.0048 203.548 60.6152 203.159 60.3168C202.076 59.6763 200.825 59.3809 199.571 59.4696C198.147 59.395 196.742 59.8286 195.607 60.6933C195.06 61.2396 194.642 61.9023 194.385 62.6323C194.128 63.3624 194.039 64.141 194.123 64.9104V67.2449C194.06 67.9911 194.154 68.7423 194.4 69.4495C194.646 70.1567 195.038 70.8039 195.551 71.349C196.697 72.3125 198.172 72.7918 199.665 72.6857C200.882 72.7816 202.096 72.456 203.103 71.7632C203.477 71.4569 203.78 71.0725 203.991 70.6368C204.202 70.2011 204.315 69.7246 204.324 69.2405V68.8075H210.599V69.3723C210.548 70.3877 210.244 71.3743 209.716 72.2423C209.188 73.1103 208.451 73.8322 207.574 74.3424C205.181 75.7403 202.429 76.3955 199.665 76.2251C196.607 76.3703 193.583 75.5254 191.042 73.8153C189.962 72.993 189.101 71.9173 188.534 70.6828C187.968 69.4483 187.713 68.0931 187.792 66.7366V65.5317C187.705 64.1696 187.958 62.8072 188.529 61.5679C189.1 60.3287 189.97 59.2516 191.061 58.4342C193.598 56.7322 196.615 55.8939 199.665 56.0432ZM231.311 63.822H221.547V56.0216H215.267V75.7328H221.547V67.3398H231.311V75.7328H237.572V56.0216H231.311V63.822ZM240.165 75.7328L250.216 56.0216H256.839L267.139 75.7328H260.323L258.409 71.6763H247.823L245.908 75.7328H240.165ZM252.57 62.173L249.584 68.2864H256.858L253.853 62.173C253.708 61.8935 253.593 61.5999 253.508 61.297C253.414 61.0228 253.337 60.7429 253.279 60.459H253.145C253.118 60.557 253.083 60.6527 253.048 60.7477C252.981 60.9298 252.915 61.1093 252.915 61.297C252.83 61.5999 252.715 61.8935 252.57 62.173ZM286.638 67.5883V68.4295V69.2708H286.486L286.104 68.4869C285.949 68.2269 285.777 67.9778 285.589 67.7413L276.947 56.0216H270.251V75.7328H275.516V63.4778V62.5601H275.65C275.696 62.6595 275.74 62.7589 275.783 62.8567C275.865 63.0411 275.944 63.2198 276.031 63.3822C276.17 63.6654 276.336 63.9343 276.527 64.1852L285.036 75.6563H292.037V56.0216H286.734L286.638 67.5883ZM298.262 56.0216H304.486V75.7328H298.262V56.0216ZM329.901 57.9296C327.425 56.5452 324.594 55.8903 321.748 56.0434C318.657 55.9016 315.6 56.7273 313.019 58.4012C311.904 59.221 311.017 60.3009 310.436 61.5426C309.855 62.7844 309.599 64.1488 309.692 65.5121V66.7193C309.608 68.0788 309.867 69.4377 310.447 70.675C311.028 71.9124 311.911 72.9898 313.019 73.8113C315.618 75.5296 318.714 76.3765 321.844 76.2256C324.673 76.3941 327.49 75.7378 329.939 74.3394C330.835 73.8273 331.586 73.1033 332.123 72.2336C332.661 71.3638 332.967 70.3759 333.016 69.3599V68.8318H326.478V69.2656C326.473 69.7514 326.359 70.2301 326.143 70.6672C325.927 71.1042 325.614 71.4888 325.228 71.7931C324.198 72.4872 322.956 72.8134 321.71 72.7173C320.182 72.8237 318.672 72.3435 317.499 71.3781C316.974 70.832 316.573 70.1835 316.321 69.475C316.069 68.7665 315.973 68.0139 316.037 67.2662V64.9274C315.951 64.1564 316.043 63.3764 316.306 62.645C316.569 61.9136 316.996 61.2496 317.556 60.7023C318.724 59.7976 320.185 59.3355 321.671 59.4008C322.955 59.3119 324.236 59.6079 325.344 60.2496C325.745 60.5452 326.065 60.9349 326.273 61.3831C326.482 61.8312 326.572 62.3236 326.536 62.8148V63.2675H332.92V62.8903C332.903 61.8765 332.616 60.8848 332.086 60.0143C331.556 59.1437 330.803 58.4249 329.901 57.9296ZM140.469 35.8357H136.145V42.535H129.756V29.2125C130.777 28.895 131.841 28.7345 132.912 28.7367C134.007 28.7426 135.096 28.9028 136.145 29.2125V32.448H139.709C140.887 32.5647 142.069 32.2825 143.059 31.6486C143.374 31.3486 143.618 30.9859 143.776 30.5852C143.934 30.1845 144.002 29.7553 143.975 29.3267C144.004 28.9036 143.937 28.4794 143.779 28.0845C143.621 27.6897 143.375 27.3339 143.059 27.0428C142.063 26.4254 140.884 26.1508 139.709 26.2625H129.679V22.8367H140.469C143.049 22.7253 145.609 23.3325 147.851 24.5877C148.676 25.0972 149.348 25.8111 149.8 26.6568C150.251 27.5025 150.466 28.4499 150.422 29.4028C150.465 30.3608 150.25 31.3132 149.799 32.1648C149.348 33.0165 148.676 33.7375 147.851 34.256C145.6 35.4729 143.034 36.0219 140.469 35.8357Z" fill="white"/>
<path fill-rule="evenodd" clip-rule="evenodd" d="M397.218 17.6231C398.15 17.0003 399.245 16.668 400.366 16.668C401.869 16.668 403.311 17.265 404.373 18.3278C405.436 19.3906 406.033 20.8321 406.033 22.3351C406.033 23.456 405.701 24.5517 405.078 25.4837C404.456 26.4156 403.57 27.142 402.535 27.5709C401.499 27.9999 400.36 28.1121 399.261 27.8934C398.161 27.6747 397.151 27.135 396.359 26.3424C395.566 25.5499 395.027 24.5401 394.808 23.4407C394.589 22.3414 394.701 21.2019 395.13 20.1664C395.559 19.1309 396.286 18.2458 397.218 17.6231ZM397.537 26.5528C398.375 27.1102 399.36 27.4063 400.366 27.4036C401.709 27.3999 402.996 26.8647 403.946 25.915C404.896 24.9653 405.431 23.6782 405.435 22.3351C405.437 21.3288 405.141 20.3442 404.584 19.5063C404.026 18.6684 403.233 18.0148 402.304 17.6284C401.374 17.242 400.351 17.1402 399.364 17.3359C398.377 17.5315 397.47 18.0159 396.758 18.7275C396.047 19.4391 395.563 20.346 395.367 21.3331C395.171 22.3203 395.273 23.3433 395.659 24.2726C396.046 25.2018 396.699 25.9954 397.537 26.5528ZM402.861 22.0983C402.738 22.2947 402.564 22.4537 402.357 22.558C402.169 22.6694 401.968 22.7582 401.759 22.8226L403.499 24.9669H402.107L400.519 22.9757H399.029V24.953H397.818V19.9263H400.408C401.081 19.8925 401.753 20.0315 402.357 20.3301C402.567 20.4306 402.744 20.5887 402.867 20.7859C402.991 20.9832 403.055 21.2114 403.053 21.4441C403.05 21.6756 402.984 21.9019 402.861 22.0983ZM398.988 22.3491H400.38C400.778 22.3881 401.177 22.3004 401.522 22.0985C401.624 22.0229 401.706 21.9241 401.762 21.8102C401.817 21.6963 401.845 21.5708 401.842 21.4441C401.846 21.3191 401.819 21.1951 401.763 21.0832C401.707 20.9714 401.624 20.8753 401.522 20.8035C401.177 20.6017 400.778 20.514 400.38 20.5529H398.988V22.3491Z" fill="white"/>
<path d="M467.988 131.008H424.298L426.456 122H470.147L467.988 131.008Z" fill="white"/>
<path d="M465.849 140.017H422.158L424.298 131.009H467.988L465.849 140.017Z" fill="#2E3D8C"/>
<path d="M463.691 149.025H420L422.158 140.017H465.849L463.691 149.025Z" fill="#B31218"/>
<defs>
<linearGradient id="paint0_linear_537_113" x1="104.781" y1="39.1631" x2="4.96545" y2="13.8544" gradientUnits="userSpaceOnUse">
<stop offset="0.02" stop-color="#404591"/>
<stop offset="0.09" stop-color="#404591" stop-opacity="0.94"/>
<stop offset="0.21" stop-color="#3F4591" stop-opacity="0.79"/>
<stop offset="0.36" stop-color="#3F4591" stop-opacity="0.54"/>
<stop offset="0.52" stop-color="#3E4590" stop-opacity="0.19"/>
<stop offset="0.6" stop-color="#3D4590" stop-opacity="0"/>
</linearGradient>
<linearGradient id="paint1_linear_537_113" x1="57.8369" y1="86.6254" x2="90.769" y2="6.34192" gradientUnits="userSpaceOnUse">
<stop offset="0.02" stop-color="#404591"/>
<stop offset="0.09" stop-color="#404591" stop-opacity="0.94"/>
<stop offset="0.21" stop-color="#404591" stop-opacity="0.79"/>
<stop offset="0.36" stop-color="#404591" stop-opacity="0.54"/>
<stop offset="0.52" stop-color="#404591" stop-opacity="0.19"/>
<stop offset="0.6" stop-color="#404591" stop-opacity="0"/>
</linearGradient>
<linearGradient id="paint2_linear_537_113" x1="13.9389" y1="62.9814" x2="90.451" y2="84.5828" gradientUnits="userSpaceOnUse">
<stop offset="0.02" stop-color="#55AAA7"/>
<stop offset="0.09" stop-color="#55AAA7" stop-opacity="0.95"/>
<stop offset="0.19" stop-color="#55AAA7" stop-opacity="0.82"/>
<stop offset="0.32" stop-color="#55AAA7" stop-opacity="0.6"/>
<stop offset="0.47" stop-color="#55AAA7" stop-opacity="0.31"/>
<stop offset="0.6" stop-color="#55AAA7" stop-opacity="0"/>
</linearGradient>
<linearGradient id="paint3_linear_537_113" x1="31.7235" y1="1.03101" x2="3.19882" y2="72.94" gradientUnits="userSpaceOnUse">
<stop offset="0.02" stop-color="#55AAA7"/>
<stop offset="0.09" stop-color="#55AAA7" stop-opacity="0.95"/>
<stop offset="0.19" stop-color="#55AAA7" stop-opacity="0.82"/>
<stop offset="0.32" stop-color="#55AAA7" stop-opacity="0.6"/>
<stop offset="0.47" stop-color="#55AAA7" stop-opacity="0.31"/>
<stop offset="0.6" stop-color="#55AAA7" stop-opacity="0"/>
</linearGradient>
<linearGradient id="paint4_linear_537_113" x1="62.6225" y1="-7.0504" x2="4.66845" y2="15.8209" gradientUnits="userSpaceOnUse">
<stop offset="0.02" stop-color="#55AAA7"/>
<stop offset="0.09" stop-color="#55AAA7" stop-opacity="0.95"/>
<stop offset="0.227503" stop-color="#55AAA7" stop-opacity="0.82"/>
<stop offset="0.387721" stop-color="#55AAA7" stop-opacity="0.6"/>
<stop offset="0.510927" stop-color="#55AAA7" stop-opacity="0.31"/>
<stop offset="0.668491" stop-color="#55AAA7" stop-opacity="0"/>
</linearGradient>
<linearGradient id="paint5_linear_537_113" x1="109.19" y1="71.0642" x2="77.2914" y2="-14.3668" gradientUnits="userSpaceOnUse">
<stop offset="0.02" stop-color="#404591"/>
<stop offset="0.09" stop-color="#404591" stop-opacity="0.94"/>
<stop offset="0.21" stop-color="#404591" stop-opacity="0.79"/>
<stop offset="0.36" stop-color="#404591" stop-opacity="0.54"/>
<stop offset="0.52" stop-color="#404591" stop-opacity="0.19"/>
<stop offset="0.6" stop-color="#404591" stop-opacity="0"/>
</linearGradient>
<linearGradient id="paint6_linear_537_113" x1="42.5347" y1="92.8503" x2="111.237" y2="45.9519" gradientUnits="userSpaceOnUse">
<stop offset="0.02" stop-color="#404591"/>
<stop offset="0.09" stop-color="#404591" stop-opacity="0.94"/>
<stop offset="0.21" stop-color="#404591" stop-opacity="0.79"/>
<stop offset="0.36" stop-color="#404591" stop-opacity="0.54"/>
<stop offset="0.52" stop-color="#404591" stop-opacity="0.19"/>
<stop offset="0.6" stop-color="#404591" stop-opacity="0"/>
</linearGradient>
<linearGradient id="paint7_linear_537_113" x1="12.2009" y1="27.3708" x2="37.9103" y2="97.1917" gradientUnits="userSpaceOnUse">
<stop offset="0.02" stop-color="#55AAA7"/>
<stop offset="0.09" stop-color="#55AAA7" stop-opacity="0.95"/>
<stop offset="0.19" stop-color="#55AAA7" stop-opacity="0.82"/>
<stop offset="0.32" stop-color="#55AAA7" stop-opacity="0.6"/>
<stop offset="0.47" stop-color="#55AAA7" stop-opacity="0.31"/>
<stop offset="0.6" stop-color="#55AAA7" stop-opacity="0"/>
</linearGradient>
</defs>
</svg>
