<svg width="471" height="164" viewBox="0 0 471 164" fill="none" xmlns="http://www.w3.org/2000/svg">
<path d="M204.789 163V156.164L227.992 134.445C230.154 132.284 231.977 130.148 233.461 128.039C234.945 125.904 235.688 123.703 235.688 121.438C235.688 118.755 234.88 116.75 233.266 115.422C231.651 114.068 229.346 113.391 226.352 113.391C223.227 113.391 220.74 114.146 218.891 115.656C217.042 117.167 216.117 119.693 216.117 123.234V124.445H204.789V122.688C204.789 117.453 206.755 113.234 210.688 110.031C214.62 106.802 219.867 105.188 226.43 105.188C233.148 105.188 238.266 106.659 241.781 109.602C245.297 112.544 247.068 116.294 247.094 120.852C247.094 124.732 246.091 128.13 244.086 131.047C242.081 133.938 239.464 136.906 236.234 139.953L221.547 154.445H248.695V163H204.789Z" fill="white"/>
<path d="M254.906 140.109V128.586C254.906 121.138 256.911 115.383 260.922 111.32C264.932 107.232 270.57 105.188 277.836 105.188C285.154 105.188 290.805 107.206 294.789 111.242C298.799 115.253 300.805 121.034 300.805 128.586V140.148C300.805 147.909 298.747 153.82 294.633 157.883C290.544 161.945 284.945 163.964 277.836 163.938C270.492 163.938 264.828 161.88 260.844 157.766C256.885 153.625 254.906 147.74 254.906 140.109ZM266.312 141.359C266.312 146.047 267.25 149.641 269.125 152.141C271.026 154.615 273.93 155.852 277.836 155.852C281.768 155.852 284.685 154.615 286.586 152.141C288.487 149.641 289.438 146.047 289.438 141.359V127.492C289.438 122.909 288.474 119.432 286.547 117.062C284.62 114.667 281.716 113.469 277.836 113.469C273.956 113.469 271.065 114.667 269.164 117.062C267.263 119.432 266.312 122.909 266.312 127.492V141.359Z" fill="white"/>
<path d="M307.289 163V156.164L330.492 134.445C332.654 132.284 334.477 130.148 335.961 128.039C337.445 125.904 338.188 123.703 338.188 121.438C338.188 118.755 337.38 116.75 335.766 115.422C334.151 114.068 331.846 113.391 328.852 113.391C325.727 113.391 323.24 114.146 321.391 115.656C319.542 117.167 318.617 119.693 318.617 123.234V124.445H307.289V122.688C307.289 117.453 309.255 113.234 313.188 110.031C317.12 106.802 322.367 105.188 328.93 105.188C335.648 105.188 340.766 106.659 344.281 109.602C347.797 112.544 349.568 116.294 349.594 120.852C349.594 124.732 348.591 128.13 346.586 131.047C344.581 133.938 341.964 136.906 338.734 139.953L324.047 154.445H351.195V163H307.289Z" fill="white"/>
<path d="M357.562 147.258V145.461H368.617V147.023C368.617 149.966 369.633 152.193 371.664 153.703C373.721 155.188 376.43 155.93 379.789 155.93C383.148 155.93 385.831 155.188 387.836 153.703C389.867 152.219 390.883 149.797 390.883 146.438C390.883 143.182 389.75 140.799 387.484 139.289C385.245 137.753 382.172 136.984 378.266 136.984H372.016V130.07H377.992C381.169 130.07 383.812 129.38 385.922 128C388.057 126.594 389.125 124.328 389.125 121.203C389.125 118.521 388.292 116.529 386.625 115.227C384.958 113.924 382.641 113.273 379.672 113.273C376.547 113.273 374.125 113.977 372.406 115.383C370.714 116.789 369.867 118.82 369.867 121.477V122.648H358.969V121.281C358.969 116.281 360.87 112.349 364.672 109.484C368.474 106.62 373.552 105.188 379.906 105.188C386.339 105.188 391.352 106.542 394.945 109.25C398.565 111.932 400.375 115.513 400.375 119.992C400.375 123.273 399.503 126.008 397.758 128.195C396.039 130.357 393.617 131.958 390.492 133V133.156C393.852 133.833 396.677 135.331 398.969 137.648C401.26 139.966 402.406 143.078 402.406 146.984C402.406 152.089 400.375 156.19 396.312 159.289C392.276 162.388 386.794 163.938 379.867 163.938C372.914 163.938 367.458 162.44 363.5 159.445C359.542 156.451 357.562 152.388 357.562 147.258Z" fill="white"/>
<path d="M25.7809 0L104.781 30.9014L100.786 45.1283L21.786 14.246L25.7809 0Z" fill="url(#paint0_linear_1021_178)"/>
<path d="M104.781 31.0089L86.0676 96.9997L68.9893 90.3892L87.7024 24.3794L104.781 31.0089Z" fill="url(#paint1_linear_1021_178)"/>
<path d="M86.2616 96.9999L7.26181 66.1176L11.2567 51.8716L90.2565 82.7539L86.2616 96.9999Z" fill="url(#paint2_linear_1021_178)"/>
<path d="M7.26181 66.0098L25.7037 0L42.5345 6.61051L24.0926 72.6203L7.26181 66.0098Z" fill="url(#paint3_linear_1021_178)"/>
<path d="M-6.10352e-05 26.673L69.1361 1.55615L78.3261 16.3805L9.19001 41.4973L-6.10352e-05 26.673Z" fill="url(#paint4_linear_1021_178)"/>
<path d="M68.7854 1.55615L111.524 70.37L96.685 75.7326L53.9465 6.93792L68.7854 1.55615Z" fill="url(#paint5_linear_1021_178)"/>
<path d="M111.524 70.3462L42.8458 95.4439L33.7166 80.6195L102.395 55.5027L111.524 70.3462Z" fill="url(#paint6_linear_1021_178)"/>
<path d="M42.7385 95.4438L-6.10352e-05 26.6491L14.8389 21.2673L57.5775 90.062L42.7385 95.4438Z" fill="url(#paint7_linear_1021_178)"/>
<path d="M467.988 131.008H424.298L426.456 122H470.147L467.988 131.008Z" fill="white"/>
<path d="M465.849 140.017H422.158L424.298 131.009H467.988L465.849 140.017Z" fill="#2E3D8C"/>
<path d="M463.691 149.025H420L422.158 140.017H465.849L463.691 149.025Z" fill="#B31218"/>
<path d="M168.507 39.1902H155.524V34.1331H166.546V30.6321H155.524V26.1423H168.313V22.5764H148.911V42.7561H168.507V39.1902Z" fill="white"/>
<path d="M177.827 42.7561L183.517 36.0296L189.352 42.7561H197.197L187.747 32.4637L196.289 22.5764H189.757L184.554 28.8491L179.173 22.6088L171.441 22.5764L180.307 32.415L171.036 42.7561H177.827Z" fill="white"/>
<path d="M208.073 34.1656H218.462V42.7561H225.108V22.5764H218.462V30.551H208.073V22.5764H201.395V42.7561H208.073V34.1656Z" fill="white"/>
<path d="M253.603 24.6674C250.783 23.0321 247.582 22.1709 244.323 22.1709C241.064 22.1709 237.863 23.0321 235.044 24.6674C233.865 25.4869 232.916 26.5954 232.289 27.8868C231.662 29.1782 231.377 30.6091 231.462 32.0423V33.2904C231.377 34.7235 231.662 36.1544 232.289 37.4458C232.916 38.7372 233.865 39.8458 235.044 40.6653C237.863 42.3005 241.064 43.1618 244.323 43.1618C247.582 43.1618 250.783 42.3005 253.603 40.6653C254.793 39.8537 255.752 38.748 256.389 37.4557C257.025 36.1634 257.316 34.7284 257.233 33.2904V32.0423C257.316 30.6042 257.025 29.1693 256.389 27.8769C255.752 26.5846 254.793 25.4789 253.603 24.6674ZM250.361 33.809C250.439 34.6136 250.334 35.4253 250.053 36.1833C249.772 36.9413 249.323 37.6258 248.74 38.1854C247.477 39.1594 245.907 39.6482 244.315 39.5631C242.737 39.6526 241.181 39.1627 239.939 38.1854C239.358 37.6237 238.911 36.9389 238.631 36.1814C238.35 35.424 238.243 34.6133 238.318 33.809V31.5236C238.245 30.7195 238.352 29.9091 238.632 29.1518C238.913 28.3946 239.359 27.7097 239.939 27.1473C241.181 26.17 242.737 25.6801 244.315 25.7696C245.906 25.693 247.473 26.1809 248.74 27.1473C249.321 27.7083 249.769 28.393 250.05 29.1506C250.33 29.9082 250.437 30.7193 250.361 31.5236V33.809Z" fill="white"/>
<path d="M263.506 43.1613C266.407 43.1613 268.369 42.4806 269.601 41.1353C270.882 39.4558 271.598 37.4125 271.643 35.3002L272.34 26.1423H280.703V42.7561H287.398V22.5764H266.991L266.051 34.5708C266.063 35.8346 265.733 37.0782 265.095 38.1691C264.764 38.5322 264.353 38.8124 263.894 38.987C263.435 39.1616 262.941 39.2256 262.453 39.174C262.199 39.1901 261.944 39.1901 261.691 39.174C261.413 39.1497 261.136 39.1064 260.864 39.0444V42.9668C261.315 43.0803 261.777 43.1455 262.242 43.1613H263.506Z" fill="white"/>
<path d="M315.908 24.6674C313.089 23.0321 309.888 22.1709 306.629 22.1709C303.37 22.1709 300.169 23.0321 297.35 24.6674C296.174 25.4901 295.228 26.5993 294.601 27.8899C293.975 29.1805 293.687 30.6098 293.767 32.0423V33.2904C293.687 34.7229 293.975 36.1521 294.601 37.4427C295.228 38.7333 296.174 39.8425 297.35 40.6653C300.169 42.3005 303.37 43.1618 306.629 43.1618C309.888 43.1618 313.089 42.3005 315.908 40.6653C317.1 39.8545 318.062 38.7494 318.701 37.4573C319.34 36.1651 319.635 34.7297 319.555 33.2904V32.0423C319.635 30.603 319.34 29.1676 318.701 27.8754C318.062 26.5832 317.1 25.4782 315.908 24.6674ZM312.667 33.809C312.745 34.6136 312.639 35.4253 312.359 36.1833C312.078 36.9413 311.629 37.6258 311.046 38.1854C309.788 39.157 308.224 39.6458 306.637 39.5631C305.054 39.6566 303.491 39.1665 302.245 38.1854C301.667 37.6216 301.222 36.9365 300.942 36.1796C300.661 35.4227 300.553 34.613 300.624 33.809V31.5236C300.554 30.7197 300.663 29.9103 300.943 29.1537C301.224 28.397 301.668 27.7118 302.245 27.1473C303.497 26.1781 305.055 25.6894 306.637 25.7696C308.223 25.6954 309.784 26.1833 311.046 27.1473C311.627 27.7083 312.075 28.393 312.355 29.1506C312.636 29.9082 312.742 30.7193 312.667 31.5236V33.809Z" fill="white"/>
<path d="M332.538 26.1423H344.225V22.5764H325.861V42.7561H332.538V26.1423Z" fill="white"/>
<path d="M365.004 30.9725L365.685 29.9675L366.301 29.0112H366.463C366.463 29.3516 366.463 29.7244 366.463 30.1458C366.463 30.5673 366.463 30.9238 366.463 31.248V42.7561H373.141V22.5764H365.912L357.289 34.3601C357.046 34.7005 356.819 35.0408 356.592 35.3974L356.009 36.3051H355.83C355.83 35.9809 355.83 35.6243 355.83 35.2029V22.5764H349.169V42.7561H356.43L365.004 30.9725Z" fill="white"/>
<path d="M386.059 42.7561L391.214 35.6729H394.796V42.7074H401.474V22.5764H390.468C387.758 22.4356 385.061 23.0411 382.672 24.3269C381.814 24.8101 381.104 25.5183 380.618 26.3751C380.132 27.2319 379.89 28.205 379.916 29.1895C379.905 29.9651 380.063 30.7338 380.379 31.4421C380.696 32.1503 381.163 32.7811 381.748 33.2902C382.681 34.0856 383.793 34.6419 384.99 34.9111L378.992 42.8047L386.059 42.7561ZM387.583 26.8878C388.644 26.2316 389.891 25.9413 391.133 26.0612H394.796V32.2691H391.133C389.884 32.3937 388.631 32.0847 387.583 31.3938C387.264 31.1227 387.009 30.7846 386.835 30.4036C386.661 30.0227 386.574 29.6081 386.578 29.1895C386.547 28.7532 386.622 28.3159 386.797 27.9151C386.972 27.5142 387.242 27.1618 387.583 26.8878Z" fill="white"/>
<path d="M137.387 67.604C137.16 67.9443 136.933 68.3009 136.69 68.6413L136.09 69.5652H135.993C135.993 69.241 135.993 68.8682 135.993 68.4468C135.993 68.0254 135.993 67.6526 135.993 67.3284V55.8203H129.137V76H136.528L145.281 64.2164C145.54 63.8598 145.767 63.5356 145.961 63.2276L146.61 62.2713H146.755C146.755 62.5955 146.755 62.9683 146.755 63.3897C146.755 63.8112 146.755 64.184 146.755 64.5081V76H153.531V55.8203H146.156L137.387 67.604Z" fill="white"/>
<path d="M184.894 68.1875C184.749 68.5117 184.603 68.8034 184.489 69.0789C184.375 69.3908 184.283 69.7103 184.214 70.0353H184.1C184.036 69.7109 183.949 69.3914 183.841 69.0789C183.727 68.8196 183.598 68.5279 183.419 68.1875L177.147 55.8203H168.508V76H173.905V63.6815C173.905 63.3573 173.905 63.0007 173.905 62.6279C173.892 62.2752 173.86 61.9234 173.808 61.5744H173.97C173.97 61.8823 174.132 62.2389 174.245 62.6279C174.356 62.9902 174.497 63.3426 174.667 63.6815L180.891 76H186.24L192.529 63.6815C192.691 63.3396 192.832 62.9877 192.95 62.6279C193.053 62.2822 193.134 61.9303 193.193 61.5744H193.355C193.355 61.8823 193.355 62.2389 193.274 62.6279C193.193 63.0169 193.274 63.3573 193.274 63.6815V76H199.985V55.8203H191.183L184.894 68.1875Z" fill="white"/>
<path d="M212.627 67.377H223.827V63.876H212.627V59.4024H225.61V55.8203H205.917V76H225.805V72.4503H212.627V67.377Z" fill="white"/>
<path d="M255.612 55.8203H248.983L243.683 62.1093L238.237 55.8527L230.376 55.8203L239.388 65.6589L229.97 76H236.859L242.629 69.2735L248.562 76H256.536L246.941 65.7076L255.612 55.8203Z" fill="white"/>
<path d="M271.205 55.7393L260.345 76H266.569L268.709 71.8344H280.152L282.292 76H289.634L278.531 55.7393H271.205ZM270.524 68.3495L273.766 62.0606C273.915 61.7743 274.039 61.4761 274.139 61.1691C274.236 60.8774 274.301 60.5856 274.382 60.2939H274.528C274.592 60.5848 274.673 60.8717 274.771 61.1529C274.863 61.4677 274.988 61.772 275.144 62.0606L278.385 68.3495H270.524Z" fill="white"/>
<path d="M310.803 63.7949H300.251V55.8203H293.476V76H300.251V67.4095H310.803V76H317.562V55.8203H310.803V63.7949Z" fill="white"/>
<path d="M331.663 67.604C331.42 67.9443 331.193 68.3009 330.966 68.6413C330.739 68.9817 330.529 69.3059 330.367 69.5652H330.188C330.188 69.241 330.188 68.8682 330.188 68.4468V55.8203H323.413V76H330.756L339.524 64.2164C339.768 63.8598 339.994 63.5356 340.189 63.2276L340.837 62.2713H340.999C340.999 62.5955 340.999 62.9683 340.999 63.3897C340.999 63.8112 340.999 64.184 340.999 64.5081V76H347.775V55.8203H340.432L331.663 67.604Z" fill="white"/>
<path d="M379.009 55.8203H371.763L362.119 63.8112H360.434V55.8203H353.642V76H360.434V67.4095H362.103L371.698 76H380.176L367.533 64.9782L379.009 55.8203Z" fill="white"/>
<path d="M405.169 76H412.528L401.409 55.7393H394.083L383.223 76H389.447L391.586 71.8344H403.03L405.169 76ZM393.386 68.3495L396.627 62.0606C396.783 61.7775 396.908 61.4787 397 61.1691C397.096 60.8818 397.177 60.5896 397.243 60.2939H397.389C397.453 60.5848 397.534 60.8717 397.632 61.1529C397.731 61.4652 397.856 61.7688 398.005 62.0606L401.247 68.3495H393.386Z" fill="white"/>
<path d="M129.412 29.6273L129.137 29.757V42.7239H135.815V29.757L135.539 29.6273C134.585 29.1629 133.537 28.9216 132.476 28.9216C131.414 28.9216 130.367 29.1629 129.412 29.6273Z" fill="white"/>
<path d="M143.984 22.5764H121V26.1585H143.984V22.5764Z" fill="white"/>
<path d="M413.403 15.9795C412.098 15.9795 410.823 16.3664 409.738 17.0913C408.653 17.8161 407.808 18.8464 407.308 20.0519C406.809 21.2573 406.678 22.5837 406.933 23.8634C407.187 25.1431 407.816 26.3185 408.738 27.2411C409.661 28.1637 410.836 28.792 412.116 29.0465C413.396 29.3011 414.722 29.1704 415.928 28.6711C417.133 28.1718 418.163 27.3263 418.888 26.2414C419.613 25.1566 420 23.8811 420 22.5764C420 20.8268 419.305 19.1488 418.068 17.9117C416.831 16.6745 415.153 15.9795 413.403 15.9795ZM413.403 28.4763C412.232 28.4795 411.086 28.1349 410.11 27.486C409.135 26.8372 408.374 25.9134 407.924 24.8317C407.474 23.75 407.356 22.5591 407.584 21.41C407.811 20.2609 408.375 19.2052 409.204 18.3769C410.032 17.5485 411.088 16.9847 412.237 16.757C413.386 16.5292 414.577 16.6477 415.658 17.0975C416.74 17.5473 417.664 18.3081 418.313 19.2835C418.962 20.2589 419.306 21.4049 419.303 22.5764C419.299 24.1398 418.676 25.638 417.57 26.7435C416.465 27.8491 414.967 28.472 413.403 28.4763Z" fill="white"/>
<path d="M415.721 22.8358C415.962 22.7144 416.165 22.5293 416.307 22.3007C416.45 22.0721 416.528 21.8087 416.532 21.5391C416.533 21.2684 416.458 21.0026 416.315 20.773C416.171 20.5434 415.965 20.3594 415.721 20.2424C415.017 19.8948 414.236 19.733 413.452 19.7724H410.437V25.6237H411.847V23.3221H413.582L415.429 25.6399H417.05L415.024 23.1438C415.268 23.0689 415.502 22.9655 415.721 22.8358ZM413.419 22.5927H411.799V20.5018H413.419C413.882 20.4564 414.347 20.5586 414.749 20.7935C414.868 20.877 414.964 20.9889 415.029 21.1191C415.095 21.2493 415.126 21.3937 415.121 21.5391C415.125 21.6867 415.092 21.8328 415.028 21.9653C414.963 22.0979 414.867 22.213 414.749 22.3009C414.347 22.5359 413.882 22.638 413.419 22.5927Z" fill="white"/>
<defs>
<linearGradient id="paint0_linear_1021_178" x1="104.781" y1="39.1631" x2="4.96535" y2="13.8544" gradientUnits="userSpaceOnUse">
<stop offset="0.02" stop-color="#404591"/>
<stop offset="0.09" stop-color="#404591" stop-opacity="0.94"/>
<stop offset="0.21" stop-color="#3F4591" stop-opacity="0.79"/>
<stop offset="0.36" stop-color="#3F4591" stop-opacity="0.54"/>
<stop offset="0.52" stop-color="#3E4590" stop-opacity="0.19"/>
<stop offset="0.6" stop-color="#3D4590" stop-opacity="0"/>
</linearGradient>
<linearGradient id="paint1_linear_1021_178" x1="57.8369" y1="86.6254" x2="90.769" y2="6.34192" gradientUnits="userSpaceOnUse">
<stop offset="0.02" stop-color="#404591"/>
<stop offset="0.09" stop-color="#404591" stop-opacity="0.94"/>
<stop offset="0.21" stop-color="#404591" stop-opacity="0.79"/>
<stop offset="0.36" stop-color="#404591" stop-opacity="0.54"/>
<stop offset="0.52" stop-color="#404591" stop-opacity="0.19"/>
<stop offset="0.6" stop-color="#404591" stop-opacity="0"/>
</linearGradient>
<linearGradient id="paint2_linear_1021_178" x1="13.939" y1="62.9814" x2="90.4511" y2="84.5828" gradientUnits="userSpaceOnUse">
<stop offset="0.02" stop-color="#55AAA7"/>
<stop offset="0.09" stop-color="#55AAA7" stop-opacity="0.95"/>
<stop offset="0.19" stop-color="#55AAA7" stop-opacity="0.82"/>
<stop offset="0.32" stop-color="#55AAA7" stop-opacity="0.6"/>
<stop offset="0.47" stop-color="#55AAA7" stop-opacity="0.31"/>
<stop offset="0.6" stop-color="#55AAA7" stop-opacity="0"/>
</linearGradient>
<linearGradient id="paint3_linear_1021_178" x1="31.7236" y1="1.03101" x2="3.19891" y2="72.94" gradientUnits="userSpaceOnUse">
<stop offset="0.02" stop-color="#55AAA7"/>
<stop offset="0.09" stop-color="#55AAA7" stop-opacity="0.95"/>
<stop offset="0.19" stop-color="#55AAA7" stop-opacity="0.82"/>
<stop offset="0.32" stop-color="#55AAA7" stop-opacity="0.6"/>
<stop offset="0.47" stop-color="#55AAA7" stop-opacity="0.31"/>
<stop offset="0.6" stop-color="#55AAA7" stop-opacity="0"/>
</linearGradient>
<linearGradient id="paint4_linear_1021_178" x1="62.6224" y1="-7.0504" x2="4.66839" y2="15.8209" gradientUnits="userSpaceOnUse">
<stop offset="0.02" stop-color="#55AAA7"/>
<stop offset="0.09" stop-color="#55AAA7" stop-opacity="0.95"/>
<stop offset="0.227503" stop-color="#55AAA7" stop-opacity="0.82"/>
<stop offset="0.387721" stop-color="#55AAA7" stop-opacity="0.6"/>
<stop offset="0.510927" stop-color="#55AAA7" stop-opacity="0.31"/>
<stop offset="0.668491" stop-color="#55AAA7" stop-opacity="0"/>
</linearGradient>
<linearGradient id="paint5_linear_1021_178" x1="109.19" y1="71.0642" x2="77.2914" y2="-14.3668" gradientUnits="userSpaceOnUse">
<stop offset="0.02" stop-color="#404591"/>
<stop offset="0.09" stop-color="#404591" stop-opacity="0.94"/>
<stop offset="0.21" stop-color="#404591" stop-opacity="0.79"/>
<stop offset="0.36" stop-color="#404591" stop-opacity="0.54"/>
<stop offset="0.52" stop-color="#404591" stop-opacity="0.19"/>
<stop offset="0.6" stop-color="#404591" stop-opacity="0"/>
</linearGradient>
<linearGradient id="paint6_linear_1021_178" x1="42.5348" y1="92.8503" x2="111.237" y2="45.9519" gradientUnits="userSpaceOnUse">
<stop offset="0.02" stop-color="#404591"/>
<stop offset="0.09" stop-color="#404591" stop-opacity="0.94"/>
<stop offset="0.21" stop-color="#404591" stop-opacity="0.79"/>
<stop offset="0.36" stop-color="#404591" stop-opacity="0.54"/>
<stop offset="0.52" stop-color="#404591" stop-opacity="0.19"/>
<stop offset="0.6" stop-color="#404591" stop-opacity="0"/>
</linearGradient>
<linearGradient id="paint7_linear_1021_178" x1="12.2008" y1="27.3708" x2="37.9103" y2="97.1917" gradientUnits="userSpaceOnUse">
<stop offset="0.02" stop-color="#55AAA7"/>
<stop offset="0.09" stop-color="#55AAA7" stop-opacity="0.95"/>
<stop offset="0.19" stop-color="#55AAA7" stop-opacity="0.82"/>
<stop offset="0.32" stop-color="#55AAA7" stop-opacity="0.6"/>
<stop offset="0.47" stop-color="#55AAA7" stop-opacity="0.31"/>
<stop offset="0.6" stop-color="#55AAA7" stop-opacity="0"/>
</linearGradient>
</defs>
</svg>
