<svg width="444" height="90" viewBox="0 0 444 90" fill="none" xmlns="http://www.w3.org/2000/svg">
<path d="M70.546 35.3394H51.2668V27.8299H67.6337V22.631H51.2668V15.9639H70.2572V10.6687H41.4467V40.6346H70.546V35.3394Z" fill="white"/>
<path d="M84.3858 40.6346L92.834 30.646L101.499 40.6346H113.148L99.116 25.3508L111.8 10.6687H102.101L94.3744 19.9834L86.3835 10.7169L74.9026 10.6687L88.0683 25.2786L74.3009 40.6346H84.3858Z" fill="white"/>
<path d="M129.298 27.878H144.727V40.6346H154.595V10.6687H144.727V22.5107H129.298V10.6687H119.382V40.6346H129.298V27.878Z" fill="white"/>
<path d="M196.908 13.7736C192.722 11.3453 187.968 10.0664 183.129 10.0664C178.289 10.0664 173.535 11.3453 169.349 13.7736C167.599 14.9905 166.19 16.6367 165.259 18.5543C164.327 20.472 163.904 22.5968 164.03 24.725V26.5783C163.904 28.7065 164.327 30.8313 165.259 32.7489C166.19 34.6666 167.599 36.3128 169.349 37.5297C173.535 39.9579 178.289 41.2368 183.129 41.2368C187.968 41.2368 192.722 39.9579 196.908 37.5297C198.675 36.3245 200.101 34.6826 201.045 32.7636C201.99 30.8446 202.422 28.7137 202.3 26.5783V24.725C202.422 22.5895 201.99 20.4587 201.045 18.5396C200.101 16.6206 198.675 14.9787 196.908 13.7736ZM192.094 27.3485C192.21 28.5432 192.054 29.7486 191.637 30.8741C191.22 31.9997 190.554 33.0162 189.687 33.8471C187.813 35.2935 185.481 36.0194 183.117 35.893C180.773 36.0259 178.462 35.2984 176.618 33.8471C175.756 33.013 175.092 31.9961 174.676 30.8714C174.259 29.7467 174.101 28.5428 174.211 27.3485V23.9548C174.102 22.7606 174.262 21.5572 174.678 20.4328C175.095 19.3083 175.758 18.2913 176.618 17.4561C178.462 16.0049 180.773 15.2774 183.117 15.4103C185.48 15.2966 187.807 16.0211 189.687 17.4561C190.551 18.2892 191.215 19.306 191.632 20.431C192.049 21.556 192.207 22.7604 192.094 23.9548V27.3485Z" fill="white"/>
<path d="M211.614 41.2363C215.923 41.2363 218.835 40.2254 220.664 38.2277C222.568 35.7338 223.63 32.6995 223.697 29.5629L224.732 15.9639H237.152V40.6346H247.092V10.6687H216.789L215.393 28.4798C215.412 30.3565 214.921 32.2032 213.973 33.8231C213.482 34.3623 212.871 34.7783 212.19 35.0376C211.508 35.2968 210.775 35.392 210.05 35.3153C209.673 35.3393 209.295 35.3393 208.919 35.3153C208.506 35.2792 208.095 35.2149 207.691 35.1228V40.9475C208.361 41.116 209.047 41.2128 209.737 41.2363H211.614Z" fill="white"/>
<path d="M289.429 13.7736C285.243 11.3453 280.489 10.0664 275.65 10.0664C270.81 10.0664 266.057 11.3453 261.87 13.7736C260.125 14.9954 258.72 16.6425 257.789 18.5589C256.858 20.4754 256.432 22.5977 256.551 24.725V26.5783C256.432 28.7055 256.858 30.8279 257.789 32.7443C258.72 34.6608 260.125 36.3079 261.87 37.5297C266.057 39.9579 270.81 41.2368 275.65 41.2368C280.489 41.2368 285.243 39.9579 289.429 37.5297C291.199 36.3257 292.628 34.6847 293.577 32.7659C294.526 30.8471 294.962 28.7156 294.845 26.5783V24.725C294.962 22.5876 294.526 20.4561 293.577 18.5373C292.628 16.6185 291.199 14.9776 289.429 13.7736ZM284.615 27.3485C284.731 28.5432 284.575 29.7486 284.158 30.8741C283.741 31.9997 283.075 33.0162 282.209 33.8471C280.341 35.2899 278.018 36.0157 275.662 35.893C273.31 36.0319 270.99 35.304 269.139 33.8471C268.281 33.0099 267.621 31.9926 267.204 30.8687C266.788 29.7448 266.627 28.5424 266.732 27.3485V23.9548C266.628 22.761 266.791 21.5591 267.207 20.4355C267.623 19.3118 268.283 18.2943 269.139 17.4561C270.999 16.0169 273.313 15.2912 275.662 15.4103C278.017 15.3002 280.335 16.0247 282.209 17.4561C283.072 18.2892 283.736 19.306 284.153 20.431C284.57 21.556 284.728 22.7604 284.615 23.9548V27.3485Z" fill="white"/>
<path d="M314.124 15.9639H331.478V10.6687H304.208V40.6346H314.124V15.9639Z" fill="white"/>
<path d="M362.334 23.1365L363.345 21.6442L364.26 20.2241H364.5C364.5 20.7296 364.5 21.2831 364.5 21.9089C364.5 22.5347 364.5 23.0642 364.5 23.5456V40.6346H374.417V10.6687H363.682L350.877 28.1669C350.516 28.6723 350.179 29.1778 349.842 29.7073L348.976 31.0551H348.711C348.711 30.5738 348.711 30.0442 348.711 29.4184V10.6687H338.819V40.6346H349.602L362.334 23.1365Z" fill="white"/>
<path d="M393.6 40.6345L401.254 30.1164H406.573V40.5623H416.489V10.6687H400.147C396.122 10.4597 392.118 11.3588 388.569 13.2681C387.295 13.9857 386.241 15.0373 385.52 16.3096C384.799 17.582 384.438 19.0269 384.478 20.4888C384.461 21.6406 384.695 22.7821 385.165 23.8338C385.635 24.8856 386.328 25.8221 387.197 26.5783C388.583 27.7594 390.235 28.5854 392.011 28.9852L383.106 40.7067L393.6 40.6345ZM395.862 17.071C397.438 16.0966 399.289 15.6654 401.133 15.8435H406.573V25.0619H401.133C399.279 25.247 397.418 24.788 395.862 23.7622C395.389 23.3595 395.009 22.8575 394.751 22.2918C394.493 21.7261 394.363 21.1105 394.37 20.4888C394.324 19.8409 394.436 19.1916 394.696 18.5964C394.956 18.0011 395.356 17.4778 395.862 17.071Z" fill="white"/>
<path d="M24.3338 77.5323C23.9968 78.0377 23.6598 78.5672 23.2988 79.0727L22.4082 80.4446H22.2638C22.2638 79.9632 22.2638 79.4096 22.2638 78.7838C22.2638 78.158 22.2638 77.6045 22.2638 77.1231V60.0341H12.0826V90H23.0581L36.0553 72.5018C36.4404 71.9723 36.7774 71.4909 37.0662 71.0336L38.029 69.6136H38.2456C38.2456 70.0949 38.2456 70.6485 38.2456 71.2743C38.2456 71.9001 38.2456 72.4537 38.2456 72.9351V90H48.3064V60.0341H37.3551L24.3338 77.5323Z" fill="white"/>
<path d="M94.88 78.3987C94.6634 78.8801 94.4467 79.3134 94.2783 79.7225C94.1083 80.1856 93.9715 80.6601 93.8691 81.1426H93.7006C93.6051 80.6609 93.4764 80.1865 93.3155 79.7225C93.147 79.3374 92.9545 78.9042 92.6897 78.3987L83.375 60.0341H70.5463V90H78.5612V71.7076C78.5612 71.2262 78.5612 70.6967 78.5612 70.1431C78.5426 69.6193 78.4944 69.097 78.4168 68.5786H78.6575C78.6575 69.0359 78.8982 69.5654 79.0667 70.1431C79.2314 70.6811 79.4407 71.2044 79.6925 71.7076L88.9349 90H96.8777L106.216 71.7076C106.458 71.1999 106.667 70.6773 106.842 70.1431C106.995 69.6296 107.116 69.1071 107.203 68.5786H107.444C107.444 69.0359 107.444 69.5654 107.324 70.1431C107.203 70.7207 107.324 71.2262 107.324 71.7076V90H117.288V60.0341H104.219L94.88 78.3987Z" fill="white"/>
<path d="M136.062 77.1953H152.693V71.9964H136.062V65.3534H155.341V60.0341H126.097V90H155.63V84.7289H136.062V77.1953Z" fill="white"/>
<path d="M199.893 60.0341H190.048L182.178 69.3729L174.091 60.0823L162.417 60.0341L175.8 74.644L161.816 90H172.045L180.613 80.0114L189.423 90H201.265L187.016 74.7162L199.893 60.0341Z" fill="white"/>
<path d="M223.047 59.9138L206.921 90H216.163L219.34 83.8143H236.333L239.51 90H250.413L233.926 59.9138H223.047ZM222.036 78.6395L226.85 69.3007C227.071 68.8756 227.256 68.4328 227.403 67.9769C227.548 67.5437 227.644 67.1104 227.764 66.6772H227.981C228.076 67.1092 228.196 67.5352 228.342 67.9529C228.479 68.4203 228.664 68.8721 228.896 69.3007L233.71 78.6395H222.036Z" fill="white"/>
<path d="M281.848 71.876H266.179V60.0341H256.118V90H266.179V77.2434H281.848V90H291.884V60.0341H281.848V71.876Z" fill="white"/>
<path d="M312.824 77.5323C312.463 78.0377 312.126 78.5672 311.789 79.0727C311.452 79.5781 311.139 80.0595 310.899 80.4446H310.634C310.634 79.9632 310.634 79.4096 310.634 78.7838V60.0341H300.573V90H311.476L324.498 72.5018C324.859 71.9723 325.196 71.4909 325.485 71.0336L326.447 69.6136H326.688C326.688 70.0949 326.688 70.6485 326.688 71.2743C326.688 71.9001 326.688 72.4537 326.688 72.9351V90H336.749V60.0341H325.846L312.824 77.5323Z" fill="white"/>
<path d="M383.13 60.0341H372.371L358.05 71.9001H355.547V60.0341H345.462V90H355.547V77.2434H358.026L372.275 90H384.863L366.089 73.6331L383.13 60.0341Z" fill="white"/>
<path d="M421.977 90H432.904L416.393 59.9138H405.514L389.388 90H398.63L401.807 83.8143H418.8L421.977 90ZM404.479 78.6395L409.293 69.3007C409.524 68.8803 409.709 68.4366 409.846 67.9769C409.989 67.5502 410.109 67.1163 410.207 66.6772H410.424C410.519 67.1092 410.639 67.5352 410.785 67.9529C410.932 68.4166 411.117 68.8674 411.339 69.3007L416.152 78.6395H404.479Z" fill="white"/>
<path d="M12.4918 21.1387L12.0826 21.3313V40.5864H21.9991V21.3313L21.5899 21.1387C20.1726 20.4492 18.617 20.0908 17.0409 20.0908C15.4647 20.0908 13.9091 20.4492 12.4918 21.1387Z" fill="white"/>
<path d="M34.1298 10.6687H0V15.988H34.1298V10.6687Z" fill="white"/>
<path d="M434.204 0.87265C432.266 0.87265 430.372 1.44718 428.762 2.52358C427.151 3.59999 425.895 5.12993 425.154 6.91992C424.412 8.70992 424.218 10.6796 424.596 12.5798C424.974 14.4801 425.907 16.2256 427.277 17.5956C428.647 18.9656 430.393 19.8986 432.293 20.2766C434.193 20.6545 436.163 20.4605 437.953 19.7191C439.743 18.9777 441.273 17.7221 442.349 16.1111C443.425 14.5002 444 12.6062 444 10.6687C444 8.07064 442.968 5.57897 441.131 3.74185C439.294 1.90473 436.802 0.87265 434.204 0.87265ZM434.204 19.4298C432.464 19.4346 430.762 18.9228 429.314 17.9593C427.866 16.9958 426.736 15.624 426.068 14.0177C425.4 12.4115 425.224 10.6431 425.562 8.93667C425.901 7.23028 426.738 5.6627 427.968 4.43263C429.198 3.20255 430.765 2.36535 432.472 2.02714C434.178 1.68893 435.947 1.86494 437.553 2.53285C439.159 3.20076 440.531 4.3305 441.495 5.7789C442.458 7.2273 442.97 8.92913 442.965 10.6687C442.959 12.9904 442.034 15.2151 440.392 16.8567C438.75 18.4984 436.526 19.4235 434.204 19.4298Z" fill="white"/>
<path d="M437.646 11.0538C438.003 10.8735 438.305 10.5987 438.517 10.2592C438.729 9.91973 438.844 9.5286 438.849 9.12831C438.852 8.72623 438.741 8.33164 438.528 7.99066C438.314 7.64969 438.009 7.37642 437.646 7.2028C436.601 6.68658 435.441 6.4463 434.276 6.5048H429.8V15.1937H431.894V11.7759H434.469L437.213 15.2178H439.62L436.611 11.5111C436.973 11.3999 437.32 11.2464 437.646 11.0538ZM434.228 10.6928H431.821V7.5879H434.228C434.915 7.52056 435.606 7.6722 436.202 8.02114C436.379 8.14511 436.522 8.31127 436.619 8.50459C436.716 8.69791 436.763 8.91229 436.755 9.12831C436.76 9.34738 436.712 9.5644 436.616 9.76121C436.52 9.95802 436.378 10.1289 436.202 10.2596C435.606 10.6085 434.915 10.7601 434.228 10.6928Z" fill="white"/>
</svg>
