<svg width="396" height="82" viewBox="0 0 396 82" fill="none" xmlns="http://www.w3.org/2000/svg">
<path fill-rule="evenodd" clip-rule="evenodd" d="M121.491 27.8475C125.297 30.1518 129.626 31.4314 134.063 31.5636C138.5 31.6958 142.896 30.6763 146.83 28.6027C148.17 27.8054 149.293 26.6846 150.097 25.3411C150.901 23.9976 151.362 22.4736 151.437 20.906V20.2671H141.906V20.906C141.887 21.6519 141.711 22.3851 141.388 23.0564C141.065 23.7277 140.604 24.3215 140.034 24.7979C138.492 25.8705 136.634 26.3825 134.765 26.2501C132.474 26.4027 130.214 25.6531 128.459 24.1589C127.669 23.3205 127.062 22.323 126.68 21.2319C126.298 20.1409 126.149 18.9807 126.242 17.8274V14.1678C126.117 12.981 126.257 11.781 126.65 10.6555C127.044 9.52992 127.681 8.50721 128.517 7.662C130.214 6.54297 132.176 5.90175 134.201 5.80473C136.226 5.70771 138.24 6.15841 140.034 7.11016C140.639 7.55744 141.122 8.15111 141.439 8.83638C141.756 9.52166 141.897 10.2765 141.848 11.0311V11.7281H151.379V11.1763C151.374 9.59184 150.953 8.03701 150.159 6.66985C149.365 5.3027 148.226 4.17195 146.859 3.39254C143.151 1.26075 138.912 0.252361 134.65 0.488145C129.975 0.253574 125.35 1.54723 121.462 4.17673C119.79 5.43777 118.457 7.09942 117.582 9.01129C116.707 10.9232 116.319 13.0249 116.452 15.1263V16.9851C116.342 19.074 116.744 21.1581 117.623 23.0528C118.502 24.9476 119.83 26.5944 121.491 27.8475ZM91.8912 31.5536C87.2247 31.7605 82.6149 30.4601 78.7372 27.8429C77.0501 26.5988 75.7011 24.9486 74.814 23.044C73.9269 21.1394 73.5302 19.0413 73.6602 16.9424V15.0871C73.5302 12.9882 73.9269 10.8901 74.814 8.98549C75.7011 7.08088 77.0501 5.43076 78.7372 4.18666C82.6149 1.56946 87.2247 0.269034 91.8912 0.47588C96.5559 0.285239 101.161 1.58428 105.045 4.18666C106.745 5.42239 108.107 7.06932 109.004 8.97481C109.902 10.8803 110.306 12.9827 110.18 15.0871V16.9424C110.306 19.0468 109.902 21.1492 109.004 23.0547C108.107 24.9602 106.745 26.6071 105.045 27.8429C101.161 30.4452 96.5559 31.7443 91.8912 31.5536ZM83.813 10.8355C83.4196 11.9564 83.2724 13.1497 83.3815 14.3333V17.7832C83.2747 18.9622 83.4231 20.1505 83.8165 21.2664C84.2098 22.3823 84.8389 23.3995 85.6604 24.248C87.4169 25.6715 89.6388 26.3849 91.8912 26.2484C94.1587 26.3592 96.3872 25.6264 98.1509 24.1901C98.9876 23.3501 99.6305 22.3357 100.034 21.2186C100.438 20.1015 100.593 18.909 100.488 17.7252V14.3333C100.595 13.145 100.442 11.9474 100.038 10.8253C99.634 9.70313 98.9899 8.68383 98.1509 7.83945C96.3767 6.42548 94.1532 5.70464 91.8912 5.81012C89.6369 5.69567 87.4194 6.4179 85.6604 7.83945C84.8366 8.69239 84.2063 9.71448 83.813 10.8355ZM69.7457 30.797H59.2369L52.1643 20.5039H47.2392V30.797H37.8472V1.26523H52.7656C56.6431 1.04977 60.5055 1.90258 63.9329 3.73098C65.1811 4.42749 66.2147 5.45324 66.9215 6.69675C67.6283 7.94026 67.9811 9.35396 67.9417 10.7842C67.9794 12.2368 67.6241 13.6726 66.9133 14.9395C66.2026 16.2064 65.1628 17.2573 63.9043 17.9808C63.1567 18.4312 62.371 18.815 61.5563 19.1276L69.7457 30.797ZM52.3934 6.39744H47.2106V15.4577H52.3934C54.069 15.6168 55.7482 15.1915 57.1466 14.2535C57.6271 13.83 58.0056 13.3029 58.2535 12.712C58.5015 12.1211 58.6125 11.4816 58.5783 10.8415C58.6178 10.2204 58.5115 9.59866 58.2679 9.02608C58.0242 8.45351 57.65 7.94603 57.1753 7.54431C55.7501 6.64718 54.0698 6.2442 52.3934 6.39744ZM167.629 25.573H185.669V30.797H158.439V1.23254H185.415V6.45655H167.629V13.0296H182.955V18.1675H167.629V25.573ZM194.874 29.2815C198.475 30.8977 202.404 31.6747 206.357 31.5526C210.321 31.7225 214.265 30.9229 217.841 29.2248C219.15 28.6638 220.264 27.7354 221.045 26.5547C221.826 25.3739 222.239 23.9926 222.234 22.5818C222.267 21.3164 221.95 20.0661 221.318 18.9655C220.685 17.8649 219.761 16.9559 218.645 16.3363C215.708 14.7176 212.514 13.6041 209.2 13.0433C206.781 12.6648 204.4 12.0855 202.08 11.3116C201.643 11.1634 201.265 10.8839 200.997 10.5123C200.729 10.1406 200.586 9.69548 200.587 9.23919C200.59 8.78815 200.72 8.34692 200.964 7.96556C201.207 7.5842 201.554 7.27799 201.965 7.08165C203.303 6.47295 204.772 6.19993 206.243 6.28677C207.79 6.18667 209.331 6.55291 210.664 7.33715C211.136 7.64583 211.521 8.06851 211.782 8.56524C212.044 9.06197 212.172 9.61635 212.157 10.176V10.6586H221.573V10.0625C221.553 8.70476 221.15 7.37962 220.409 6.23613C219.669 5.09263 218.62 4.17617 217.382 3.58986C213.878 2.03591 210.082 1.23254 206.243 1.23254C202.403 1.23254 198.607 2.03591 195.103 3.58986C193.865 4.14592 192.814 5.03953 192.071 6.16586C191.329 7.2922 190.926 8.60453 190.912 9.9489C190.915 11.1178 191.241 12.2637 191.853 13.2639C192.465 14.264 193.34 15.0808 194.386 15.6266C197.337 17.2186 200.557 18.2671 203.888 18.721C206.362 19.0532 208.783 19.6922 211.094 20.623C211.557 20.839 211.948 21.1805 212.222 21.6077C212.495 22.0349 212.641 22.5303 212.641 23.036C212.641 23.5418 212.495 24.0372 212.222 24.4644C211.948 24.8916 211.557 25.2331 211.094 25.4491C209.641 26.1155 208.043 26.4177 206.443 26.3291C204.793 26.4279 203.147 26.0847 201.678 25.3355C201.157 25.0619 200.721 24.653 200.417 24.1528C200.114 23.6526 199.954 23.08 199.955 22.4967V21.9857H190.338V22.5818C190.34 24.0166 190.773 25.4185 191.58 26.6107C192.387 27.803 193.533 28.7323 194.874 29.2815ZM243.659 31.5526C239.694 31.686 235.752 30.9085 232.144 29.2815C230.814 28.7223 229.681 27.7882 228.887 26.5963C228.093 25.4044 227.674 24.0078 227.682 22.5818V21.9857H237.326V22.4967C237.325 23.08 237.485 23.6526 237.789 24.1528C238.094 24.653 238.531 25.0619 239.053 25.3355C240.528 26.0807 242.177 26.4237 243.832 26.3291C245.436 26.4177 247.037 26.1155 248.495 25.4491C248.969 25.2418 249.371 24.9035 249.653 24.4751C249.936 24.0468 250.086 23.5469 250.086 23.036C250.086 22.5252 249.936 22.0253 249.653 21.5969C249.371 21.1686 248.969 20.8303 248.495 20.623C246.177 19.6922 243.75 19.0532 241.27 18.721C237.9 18.2772 234.641 17.2284 231.655 15.6266C230.607 15.0808 229.729 14.264 229.115 13.2639C228.502 12.2637 228.175 11.1178 228.172 9.9489C228.186 8.60453 228.59 7.2922 229.334 6.16586C230.078 5.03953 231.133 4.14592 232.374 3.58986C235.887 2.03591 239.694 1.23254 243.544 1.23254C247.394 1.23254 251.2 2.03591 254.713 3.58986C255.959 4.17081 257.014 5.08599 257.758 6.23067C258.501 7.37535 258.902 8.70327 258.916 10.0625V10.6586H249.445V10.176C249.467 9.61546 249.34 9.05906 249.077 8.56138C248.815 8.0637 248.426 7.64183 247.948 7.33715C246.612 6.55291 245.066 6.18667 243.515 6.28677C242.041 6.20226 240.568 6.47518 239.226 7.08165C238.814 7.27799 238.466 7.5842 238.222 7.96556C237.978 8.34692 237.847 8.78815 237.844 9.23919C237.843 9.69548 237.987 10.1406 238.255 10.5123C238.524 10.8839 238.903 11.1634 239.341 11.3116C241.667 12.0855 244.055 12.6648 246.48 13.0433C249.821 13.6058 253.042 14.7191 256.009 16.3363C257.12 16.962 258.039 17.8731 258.668 18.9729C259.297 20.0726 259.611 21.3198 259.578 22.5818C259.583 23.9926 259.169 25.3739 258.386 26.5547C257.603 27.7354 256.486 28.6638 255.174 29.2248C251.588 30.9229 247.633 31.7225 243.659 31.5526ZM291.004 1.23254L275.919 30.797H284.539L287.412 24.7127H303.302L306.175 30.797H316.375L301.29 1.23254H291.004ZM290.027 19.6568L294.538 10.4589C294.739 10.0305 294.912 9.57342 295.055 9.17352C295.188 8.80447 295.271 8.38676 295.351 7.98775L295.351 7.98712L295.371 7.88811H295.544C295.544 8.19858 295.649 8.50905 295.751 8.80865L295.751 8.80953L295.752 8.81031C295.79 8.92361 295.828 9.03535 295.86 9.14495C295.975 9.54486 296.176 10.0019 296.377 10.4589L300.888 19.6568H290.027ZM345.673 19.861V18.5981L345.759 1.23254H353.72V30.6822H343.374L330.527 13.4602C330.479 13.388 330.431 13.3167 330.384 13.2462L330.383 13.2457L330.383 13.2453C330.147 12.8952 329.924 12.565 329.78 12.2546C329.735 12.1561 329.687 12.0555 329.639 11.953C329.504 11.6672 329.361 11.3659 329.234 11.0491H329.004V12.4268V30.797H321.044V1.23254H331.131L344.064 18.8277C344.347 19.1828 344.607 19.5568 344.84 19.9471C345.064 20.3371 345.265 20.7396 345.443 21.1527H345.673V19.861ZM390.364 4.88725C386.295 2.3571 381.576 1.09025 376.795 1.24524H363.056V30.7828H376.795C381.573 30.9464 386.292 29.6896 390.364 27.1695C392.074 26.0963 393.472 24.5861 394.413 22.7926C395.354 20.9992 395.806 18.9868 395.723 16.9604V15.0964C395.806 13.07 395.354 11.0575 394.413 9.26409C393.472 7.47067 392.074 5.96041 390.364 4.88725ZM386.288 17.1038C386.376 18.3224 386.177 19.5449 385.707 20.6713C385.236 21.7978 384.507 22.7961 383.58 23.5848C381.569 25.0685 379.115 25.8172 376.624 25.7069H372.349V6.40714H376.624C379.112 6.28632 381.566 7.02499 383.58 8.50058C384.511 9.28626 385.242 10.2841 385.713 11.4113C386.184 12.5385 386.381 13.7625 386.288 14.9816V17.1038ZM23.5259 69.4494C23.5703 69.3504 23.6152 69.25 23.6602 69.1482L32.3443 51.0252H44.8493V80.5897H35.4416V62.5528V61.0043V59.4558H35.21C35.1236 59.978 35.0076 60.495 34.8627 61.0043C34.689 61.5492 34.4863 62.0653 34.2837 62.5528L25.5996 80.5897H17.9287L9.24464 62.5528C9.20619 62.4603 9.16669 62.3678 9.12694 62.2747C8.95725 61.8772 8.78298 61.469 8.66571 61.0043C8.61809 60.8156 8.56108 60.6332 8.506 60.4569C8.39367 60.0974 8.28941 59.7637 8.28941 59.4558H8.05783V61.0043V62.5528V80.5897H0.502686V51.0252H12.9209L21.605 69.1482C21.6793 69.3046 21.7655 69.4552 21.8484 69.5998C22.0237 69.9058 22.1839 70.1854 22.1839 70.4386C22.3437 70.8952 22.46 71.3656 22.5313 71.8437H22.705C22.7936 71.3634 22.9294 70.8928 23.1102 70.4386C23.2228 70.1262 23.3705 69.7965 23.5259 69.4494ZM63.385 67.9725H78.7269V62.8396H63.385V56.2729H81.1612V51.0252H54.1856V80.5897H81.416V75.3707H63.385V67.9725ZM105.473 51.0577C109.652 50.8294 113.809 51.8095 117.449 53.8814C118.776 54.6396 119.88 55.7366 120.647 57.0609C121.414 58.3852 121.817 59.8895 121.816 61.4208V61.9855H112.461V61.3078C112.506 60.5732 112.371 59.8388 112.066 59.1691C111.761 58.4995 111.297 57.9151 110.714 57.4675C109.09 56.5069 107.213 56.0638 105.332 56.1969C103.196 56.085 101.09 56.7352 99.3868 58.0323C98.5659 58.8517 97.9396 59.8456 97.5543 60.9406C97.1689 62.0355 97.0344 63.2033 97.1607 64.3574V67.8588C97.0659 68.9781 97.2076 70.1048 97.5766 71.1655C97.9456 72.2262 98.5336 73.197 99.3022 74.0145C101.022 75.4597 103.234 76.1786 105.473 76.0194C107.299 76.1632 109.119 75.6748 110.63 74.6358C111.191 74.1763 111.645 73.5998 111.962 72.9463C112.278 72.2928 112.448 71.5782 112.461 70.852V70.2025H121.872V71.0496C121.796 72.5726 121.341 74.0524 120.549 75.3543C119.756 76.6562 118.652 77.739 117.336 78.5043C113.747 80.6009 109.619 81.5836 105.473 81.328C100.887 81.5458 96.3518 80.2785 92.5396 77.7136C90.9204 76.4803 89.6289 74.8668 88.7788 73.0153C87.9287 71.1637 87.5462 69.1311 87.6649 67.0964V65.2892C87.5345 63.2462 87.9146 61.2029 88.7706 59.3441C89.6267 57.4853 90.9318 55.8698 92.5678 54.6438C96.3739 52.0911 100.899 50.8337 105.473 51.0577ZM152.939 62.7248H138.294V51.0252H128.875V80.5897H138.294V68.0011H152.939V80.5897H162.329V51.0252H152.939V62.7248ZM166.219 80.5897L181.293 51.0252H191.228L206.676 80.5897H196.454L193.583 74.5054H177.704L174.833 80.5897H166.219ZM184.825 60.2516L180.346 69.4209H191.257L186.749 60.2516C186.532 59.8323 186.359 59.392 186.232 58.9377C186.091 58.5264 185.976 58.1066 185.888 57.6808H185.687C185.647 57.8277 185.594 57.9713 185.542 58.1138C185.441 58.3869 185.342 58.6561 185.342 58.9377C185.215 59.392 185.042 59.8323 184.825 60.2516ZM235.923 68.3739V69.6356V70.8974H235.694L235.121 69.7217C234.889 69.3317 234.631 68.9581 234.349 68.6033L221.387 51.0252H211.344V80.5897H219.241V62.2087V60.8323H219.441C219.511 60.9812 219.577 61.1302 219.641 61.2768L219.642 61.2778L219.642 61.2783L219.642 61.2787C219.764 61.5547 219.883 61.8222 220.013 62.0653C220.222 62.49 220.471 62.8934 220.757 63.2697L233.519 80.475H244.02V51.0252H236.066L235.923 68.3739ZM253.357 51.0252H262.693V80.5897H253.357V51.0252ZM300.811 53.887C297.097 51.8106 292.852 50.8283 288.583 51.058C283.947 50.8453 279.362 52.0837 275.49 54.5943C273.819 55.824 272.487 57.4436 271.616 59.3061C270.745 61.1687 270.361 63.2151 270.501 65.2598V67.0704C270.374 69.1095 270.763 71.1477 271.634 73.0036C272.504 74.8595 273.829 76.4754 275.49 77.7077C279.388 80.2848 284.032 81.5552 288.727 81.3288C292.97 81.5815 297.195 80.5972 300.869 78.4998C302.212 77.7316 303.338 76.6458 304.144 75.3412C304.95 74.0366 305.411 72.5549 305.483 71.0311V70.239H295.678V70.8896C295.671 71.6182 295.499 72.3362 295.175 72.9918C294.851 73.6474 294.382 74.2242 293.803 74.6806C292.257 75.7216 290.395 76.2109 288.525 76.0668C286.234 76.2263 283.97 75.5061 282.21 74.0582C281.423 73.239 280.821 72.2664 280.443 71.2037C280.066 70.1411 279.921 69.0122 280.018 67.8908V64.3828C279.888 63.2265 280.026 62.0565 280.42 60.9595C280.815 59.8625 281.456 58.8667 282.296 58.0458C284.047 56.6887 286.238 55.9958 288.468 56.0937C290.393 55.9603 292.314 56.4043 293.976 57.3668C294.579 57.81 295.058 58.3946 295.37 59.0668C295.683 59.739 295.818 60.4774 295.764 61.2143V61.8933H305.339V61.3274C305.314 59.807 304.883 58.3195 304.089 57.0138C303.294 55.708 302.164 54.6299 300.811 53.887ZM16.6867 20.7488H10.2014V30.797H0.61954V10.8149C2.14962 10.3386 3.74623 10.0979 5.35206 10.1012C6.99522 10.1101 8.62847 10.3504 10.2014 10.8149V15.6677H15.5474C17.3134 15.8428 19.0874 15.4195 20.572 14.4688C21.0435 14.0187 21.4102 13.4747 21.6472 12.8738C21.8841 12.2728 21.9857 11.629 21.945 10.9862C21.989 10.3516 21.8887 9.71533 21.6513 9.12309C21.4139 8.53085 21.0454 7.99728 20.572 7.56066C19.0773 6.63462 17.3089 6.22272 15.5474 6.39029H0.502686V1.25204H16.6867C20.5574 1.08485 24.397 1.99561 27.7584 3.87825C28.9962 4.64251 30.0049 5.71322 30.6822 6.98167C31.3595 8.25012 31.6811 9.67111 31.6146 11.1003C31.6796 12.5373 31.3577 13.9657 30.6811 15.243C30.0044 16.5203 28.9967 17.6019 27.7584 18.3795C24.3822 20.2047 20.5346 21.0281 16.6867 20.7488Z" fill="white"/>
</svg>
