<svg width="109" height="39" viewBox="0 0 109 39" fill="none" xmlns="http://www.w3.org/2000/svg">
<path d="M19.6402 9.22578C19.6402 7.12888 18.6261 5.48682 15.6552 5.48682H5.4511V18.1025H8.28176V13.6642H14.817C16.2846 13.6642 16.6693 14.0764 16.6693 15.5508V18.1025H19.5V15.0974C19.5 13.5982 18.9682 12.7188 17.7879 12.4192C19.0163 12.0042 19.6402 10.8156 19.6402 9.22578ZM15.2719 11.0121H8.28176V8.14298H15.2719C16.3203 8.14298 16.8095 8.70224 16.8095 9.54045C16.8095 10.3787 16.3904 11.008 15.2719 11.008V11.0121ZM75.0663 13.458V10.1341C75.0663 6.49954 76.079 5.48682 79.7135 5.48682H86.1443V8.14298H79.5734C78.1058 8.14298 77.8969 8.38757 77.8969 9.99528V10.4144H84.7826V13.0348H77.8983V13.5941C77.8983 15.2018 78.1072 15.4464 79.5747 15.4464H86.5992V18.1025H79.7149C76.079 18.1025 75.0663 17.0541 75.0663 13.4539V13.458ZM16.6666 20.903H19.4973V33.5145H10.4432C6.80872 33.5145 5.4456 32.1514 5.4456 28.5169V20.8988H8.27627V28.5815C8.27627 30.1892 8.90561 30.8529 10.3732 30.8529H16.6638L16.6666 20.903ZM0 39H24.9525V0H0V39ZM2.72623 2.72349H22.2262V36.2765H2.72623V2.72349ZM72.9337 13.4539V10.1341C72.9337 6.49954 71.9209 5.48682 68.2864 5.48682H60.6326V18.1025H68.2933C71.9209 18.1025 72.9337 17.0541 72.9337 13.4539ZM63.4633 8.14298H68.2933C69.7608 8.14298 70.1099 8.52635 70.1099 10.1341V13.4539C70.1099 15.0616 69.7608 15.4464 68.2933 15.4464H63.4702L63.4633 8.14298ZM33.1298 18.1025H30.4393V5.48682H31.4177C32.4304 5.48682 33.0254 5.69569 33.8636 6.49954L36.7286 9.2615L39.595 6.49954C40.4332 5.69569 41.0282 5.48682 42.0409 5.48682H43.0193V18.1025H40.3288V9.30822L36.7286 12.6542L33.1298 9.3041V18.1025ZM90.4769 5.48682H93.3021V18.1025H90.4714L90.4769 5.48682ZM90.4769 20.8988H93.3021V33.5145H90.4714L90.4769 20.8988ZM100.577 20.8988C97.0122 20.8988 95.9294 21.8772 95.9294 25.5461V33.5159H98.76V29.285H105.679V33.5145H108.509V20.8988H100.577ZM105.679 23.5536V26.6646H98.76V25.5461C98.76 24.1129 98.9346 23.5536 100.577 23.5536H105.679ZM108.509 5.48682V18.1025H107.567C105.819 18.1025 105.085 17.6834 103.792 16.0757L98.6611 9.68748V18.1025H95.9294V5.48682H96.8748C98.6226 5.48682 99.3564 5.89906 100.649 7.51364L105.787 13.9019V5.48682H108.509ZM88.1725 29.5997C88.1725 32.0456 86.8438 33.5145 83.9128 33.5145H76.0089V30.8584H83.8029C84.8857 30.8584 85.3405 30.4036 85.3405 29.5997C85.3405 28.8316 84.8857 28.4111 83.8029 28.4111H79.0498C76.0089 28.4111 75.0305 26.4874 75.0305 24.6378C75.0305 22.7882 76.0089 20.8988 79.0498 20.8988H86.6679V23.5536H79.19C78.2803 23.5536 77.8612 23.9384 77.8612 24.6721C77.8612 25.3716 78.2734 25.7563 79.19 25.7563H83.9073C86.8438 25.7563 88.1712 27.3627 88.1712 29.5997H88.1725ZM45.5009 10.1341V18.1039H48.3316V13.8785H55.2502V18.1067H58.0823V5.48682H50.155C46.5823 5.48682 45.5009 6.46519 45.5009 10.1341ZM55.2502 11.2526H48.3316V10.1341C48.3316 8.70224 48.5061 8.14298 50.1482 8.14298H55.2502V11.2526ZM55.2502 20.8988H58.0823V33.5145H50.155C46.5205 33.5145 45.5078 32.5005 45.5078 28.8659V20.8961H48.3385V28.8659C48.3385 30.4736 48.6875 30.8584 50.155 30.8584H55.2571L55.2502 20.8988ZM73.7732 29.5997C73.7732 32.0456 72.4445 33.5145 69.5135 33.5145H60.9816V30.8584H69.4049C70.4877 30.8584 70.9426 30.4036 70.9426 29.5997C70.9426 28.8316 70.4877 28.4111 69.4049 28.4111H64.3084C61.2688 28.4111 60.2905 26.4874 60.2905 24.6378C60.2905 22.7882 61.2688 20.8988 64.3084 20.8988H72.6259V23.5536H64.4458C63.5375 23.5536 63.1184 23.9384 63.1184 24.6721C63.1184 25.3716 63.5375 25.7563 64.4458 25.7563H69.5135C72.4445 25.7563 73.7732 27.3627 73.7732 29.5997ZM43.1594 24.6378C43.1594 22.5409 42.1453 20.8988 39.1745 20.8988H30.4393V33.5145H33.27V29.0762H38.3377C39.8052 29.0762 40.19 29.4953 40.19 30.9628V33.5145H43.0206V30.5052C43.0206 29.0061 42.4889 28.1267 41.3085 27.8285C42.5356 27.4149 43.1594 26.2276 43.1594 24.6378ZM38.7911 26.4241H33.27V23.5536H38.7911C39.8396 23.5536 40.3288 24.1129 40.3288 24.9525C40.3288 25.792 39.9097 26.42 38.7911 26.42V26.4241Z" fill="white"/>
</svg>
