<svg width="11" height="8" viewBox="0 0 11 8" fill="none" xmlns="http://www.w3.org/2000/svg">
<path d="M9.22581 0H1.77419C1.30365 0 0.852375 0.183228 0.519649 0.509378C0.186923 0.835529 0 1.27788 0 1.73913L0 6.26087C0 6.72212 0.186923 7.16447 0.519649 7.49062C0.852375 7.81677 1.30365 8 1.77419 8H9.22581C9.69635 8 10.1476 7.81677 10.4804 7.49062C10.8131 7.16447 11 6.72212 11 6.26087V1.73913C11 1.27788 10.8131 0.835529 10.4804 0.509378C10.1476 0.183228 9.69635 0 9.22581 0ZM9.97097 2.62608L6.31613 5.02609C6.07896 5.1635 5.81076 5.24118 5.53548 5.25218C5.26091 5.23714 4.99366 5.15974 4.75484 5.02609L1.1 2.62608C1.01028 2.54624 0.952181 2.43792 0.935952 2.32021C0.919724 2.20249 0.946404 2.08293 1.01129 1.98261C1.10358 1.90767 1.21967 1.86665 1.33952 1.86665C1.45936 1.86665 1.57545 1.90767 1.66774 1.98261L5.32258 4.29566C5.40135 4.33829 5.48986 4.36064 5.57984 4.36064C5.66982 4.36064 5.75833 4.33829 5.8371 4.29566L9.47419 1.89565C9.52603 1.86071 9.5846 1.83653 9.64632 1.8246C9.70803 1.81267 9.77159 1.81323 9.83307 1.82627C9.89455 1.8393 9.95267 1.86452 10.0038 1.90038C10.055 1.93624 10.0982 1.98197 10.1306 2.03478C10.1709 2.13727 10.1771 2.24961 10.1485 2.35578C10.1198 2.46195 10.0577 2.55654 9.97097 2.62608Z" fill="#41A99E"/>
</svg>
