<svg width="83" height="25" viewBox="0 0 83 25" fill="none" xmlns="http://www.w3.org/2000/svg">
<path d="M12.5023 5.91396C12.5023 4.5698 11.8568 3.51719 9.96563 3.51719H3.47V11.6042H5.27191V8.75907H9.43206C10.3663 8.75907 10.6112 9.02332 10.6112 9.96847V11.6042H12.4131V9.67779C12.4131 8.71679 12.0746 8.15305 11.3232 7.96103C12.1052 7.69502 12.5023 6.93309 12.5023 5.91396ZM9.72159 7.05905H5.27191V5.21986H9.72159C10.389 5.21986 10.7004 5.57836 10.7004 6.11567C10.7004 6.65298 10.4336 7.05641 9.72159 7.05641V7.05905ZM82.1988 13.4011H82.8662V21.4837H81.0643V15.7485L77.3493 21.4837H75.2806V13.3967H77.0826V18.931L79.7942 14.6959C80.4861 13.6204 81.0861 13.3967 82.1988 13.3967V13.4011ZM47.0282 11.6042V9.8795C47.7621 9.8795 47.9405 9.43115 48.0962 7.9302L48.5852 3.51719H55.0371V11.6042H53.2352V5.21986H50.1273L49.8089 8.31073C49.5421 10.977 48.8301 11.694 47.0282 11.6042ZM0 25H15.884V0H0V25ZM1.73544 1.74582H14.1485V23.2542H1.73544V1.74582ZM10.6112 13.3967H12.4131V21.4837H6.64784C4.33422 21.4837 3.4665 20.6099 3.4665 18.2801V13.3967H5.26841V18.3215C5.26841 19.3521 5.66903 19.7775 6.60323 19.7775H10.6077L10.6112 13.3967ZM58.529 8.89648H62.5115V11.6068H64.3135V3.51719H59.6862C57.4172 3.51719 56.727 4.14435 56.727 6.49619V11.6051H58.529V8.89648ZM59.6862 5.2225H62.5115V7.2132H58.529V6.49619C58.529 5.57836 58.6409 5.21986 59.6862 5.21986V5.2225ZM38.1962 8.6243V6.49619C38.1962 4.16637 38.8417 3.51719 41.1554 3.51719H45.8709V5.21986H41.0661C40.1319 5.21986 39.9981 5.37665 39.9981 6.40723V6.67589H44.5589V8.35565H39.9981V8.71415C39.9981 9.74473 40.1319 9.90152 41.0661 9.90152H45.9383V11.6042H41.1554C38.8417 11.6042 38.1962 10.9321 38.1962 8.6243ZM80.0408 3.51543H78.0614C75.7696 3.51543 75.1031 4.16461 75.1031 6.49443V8.6243C75.1031 10.9321 75.9927 11.6042 78.2835 11.6042H79.8187C82.1323 11.6042 83 10.9321 83 8.6243V6.49619C83 4.16637 82.3545 3.51719 80.0408 3.51719V3.51543ZM81.1981 8.6243C81.1981 9.65489 80.9759 9.90152 80.0408 9.90152H78.0614C77.1272 9.90152 76.905 9.65489 76.905 8.6243V6.49619C76.905 5.46561 77.1272 5.21986 78.0614 5.21986H80.0408C80.9759 5.21986 81.1981 5.46561 81.1981 6.49619V8.6243ZM50.3425 13.3967H55.282V14.4044C55.282 15.2112 55.2155 15.8833 55.038 16.4876H53.502V15.0985H50.3425C49.4083 15.0985 49.1861 15.3451 49.1861 16.3757V18.5038C49.1861 19.5344 49.4083 19.781 50.3425 19.781H55.282V21.4837H50.3425C48.0516 21.4837 47.3842 20.8116 47.3842 18.5038V16.3757C47.3842 14.0459 48.0516 13.3967 50.3425 13.3967ZM36.1721 3.51719H29.6117L29.212 7.61662C29.0117 9.56592 28.7222 9.8795 28.1886 9.8795H28.0784V12.3661H29.7911L29.8575 11.3355H35.1522L35.2187 12.3661H36.9322V9.8566H36.1756L36.1721 3.51719ZM31.1932 5.21986H34.3702V9.65489H30.5162C30.762 9.22151 30.8661 8.61726 30.9439 7.84036L31.1932 5.21986ZM43.1576 13.3967H41.0242C38.7333 13.3967 38.0659 14.0459 38.0659 16.3757V18.5038C38.0659 20.8116 38.7333 21.4837 41.0242 21.4837H43.1602C45.4738 21.4837 46.1185 20.8116 46.1185 18.5038V16.3757C46.1159 14.0459 45.4712 13.3967 43.1576 13.3967ZM44.314 18.5056C44.314 19.5361 44.0918 19.7828 43.1576 19.7828H41.0242C40.09 19.7828 39.8678 19.5361 39.8678 18.5056V16.3757C39.8678 15.3451 40.09 15.0985 41.0242 15.0985H43.1602C44.0944 15.0985 44.3166 15.3451 44.3166 16.3757L44.314 18.5056ZM59.5078 13.3967H64.4665V14.4044C64.4665 15.2112 64.4001 15.8833 64.2216 16.4876H62.6891V15.0985H59.5078C58.5736 15.0985 58.3514 15.3451 58.3514 16.3757V18.5038C58.3514 19.5344 58.5736 19.781 59.5078 19.781H64.4665V21.4837H59.5078C57.2169 21.4837 56.5495 20.8116 56.5495 18.5038V16.3757C56.5495 14.0459 57.2169 13.3967 59.5078 13.3967ZM25.7884 17.2099C26.2108 16.95 26.5616 16.3986 26.5616 15.5468C26.5616 14.4493 25.9388 13.3967 24.0923 13.3967H19.3767V21.4837H24.2751C26.0543 21.4837 26.922 20.565 26.922 19.064C26.9176 18.0572 26.3421 17.46 25.7884 17.2099ZM24.7597 15.8155C24.7597 16.3088 24.5148 16.5774 23.892 16.5774H21.1804V15.1214H23.892C24.5148 15.1214 24.7597 15.3451 24.7597 15.8155ZM24.2926 19.7793H21.1786V18.2122H24.2926C24.8935 18.2122 25.1157 18.5038 25.1157 18.9742C25.1157 19.4445 24.8935 19.781 24.2926 19.781V19.7793ZM71.7896 3.51543H73.5916V11.6024H71.7879V8.35565H67.8062V11.6042H66.0043V3.51719H67.8062V6.65298H71.7879L71.7896 3.51543ZM22.0699 3.51543H26.9858V4.52487C26.9858 5.33172 26.9194 6.00381 26.7418 6.60894H25.2049V5.21986H22.0682C21.134 5.21986 20.9109 5.46561 20.9109 6.49619V8.6243C20.9109 9.65489 21.134 9.90152 22.0682 9.90152H26.9841V11.6042H22.0682C19.7764 11.6042 19.109 10.9321 19.109 8.6243V6.49619C19.109 4.16637 19.7764 3.51719 22.0682 3.51719L22.0699 3.51543ZM72.9224 13.3967H73.5898V21.4837H71.7879V15.7485L68.073 21.4837H66.0043V13.3967H67.8062V18.931L70.5178 14.6959C71.2097 13.6204 71.8141 13.3967 72.9224 13.3967ZM34.148 13.3967H28.8997V14.9822L29.8339 15.117V21.4837H31.6358V19.3996H34.1498C36.2185 19.3996 36.9305 18.3426 36.9305 16.7122V16.0841C36.9287 14.5391 36.2613 13.3967 34.148 13.3967ZM35.1487 16.6479C35.1487 17.4098 34.8592 17.7049 34.148 17.7049H31.6341V15.0985H34.148C34.8592 15.0985 35.1487 15.457 35.1487 16.1555V16.6479Z" fill="white"/>
</svg>
