<svg width="17" height="17" viewBox="0 0 17 17" fill="none" xmlns="http://www.w3.org/2000/svg">
<path fill-rule="evenodd" clip-rule="evenodd" d="M3.77768 1.43252C5.17551 0.498518 6.81891 0 8.50006 0C10.7544 0 12.9165 0.895539 14.5105 2.48961C16.1046 4.08368 17.0001 6.24571 17.0001 8.50006C17.0001 10.1812 16.5016 11.8246 15.5676 13.2224C14.6336 14.6203 13.3061 15.7097 11.7529 16.3531C10.1997 16.9964 8.49066 17.1648 6.8418 16.8368C5.19295 16.5088 3.67835 15.6993 2.4896 14.5105C1.30084 13.3218 0.491312 11.8072 0.163335 10.1583C-0.164642 8.50949 0.0036698 6.80041 0.64702 5.24723C1.29037 3.69405 2.37985 2.36652 3.77768 1.43252ZM4.25716 14.8261C5.51394 15.6621 6.99062 16.1062 8.50006 16.1021C10.5145 16.0966 12.445 15.2939 13.8694 13.8694C15.2939 12.445 16.0966 10.5146 16.1021 8.50006C16.1062 6.99062 15.6622 5.51394 14.8261 4.25716C13.9901 3.00039 12.7997 2.0201 11.406 1.44056C10.0122 0.861009 8.47783 0.708291 6.99719 1.00176C5.51655 1.29522 4.15636 2.02166 3.08903 3.089C2.02169 4.15634 1.29523 5.51652 1.00177 6.99717C0.708303 8.47781 0.861037 10.0122 1.44058 11.406C2.02013 12.7998 3.00038 13.9901 4.25716 14.8261ZM12.2421 8.14474C12.058 8.4393 11.7966 8.67777 11.4865 8.83424C11.2038 9.00135 10.9024 9.13454 10.5884 9.23105L13.199 12.4473H11.1106L8.72975 9.46078H6.49507V12.4264H4.67811V4.88703H8.56263C9.57295 4.83628 10.5795 5.04477 11.4865 5.49269C11.8012 5.64334 12.0665 5.88046 12.2514 6.17632C12.4363 6.47219 12.5332 6.81458 12.5307 7.16346C12.526 7.51079 12.4262 7.85017 12.2421 8.14474ZM6.43242 8.52097H8.52089C9.11709 8.5794 9.71653 8.44782 10.2334 8.14504C10.3861 8.03168 10.5093 7.88341 10.5929 7.71263C10.6765 7.54185 10.7179 7.35355 10.7138 7.16346C10.7199 6.97602 10.6792 6.79001 10.5953 6.62226C10.5115 6.45451 10.3871 6.31033 10.2334 6.20277C9.71653 5.9 9.11709 5.76842 8.52089 5.82685H6.43242V8.52097Z" fill="white"/>
</svg>
